<?xml version="1.0" encoding="UTF-8" standalone="no"?>
<svg
   xmlns:dc="http://purl.org/dc/elements/1.1/"
   xmlns:cc="http://creativecommons.org/ns#"
   xmlns:rdf="http://www.w3.org/1999/02/22-rdf-syntax-ns#"
   xmlns:svg="http://www.w3.org/2000/svg"
   xmlns="http://www.w3.org/2000/svg"
   xmlns:sodipodi="http://sodipodi.sourceforge.net/DTD/sodipodi-0.dtd"
   xmlns:inkscape="http://www.inkscape.org/namespaces/inkscape"
   id="Capa_1"
   enable-background="new 0 0 503 503"
   height="169.33334mm"
   viewBox="0 0 628.75004 628.75004"
   width="169.33334mm"
   version="1.1"
   sodipodi:docname="lwt-logo-wolf-v2.svg"
   inkscape:version="0.92.5 (2060ec1f9f, 2020-04-08)"
   inkscape:export-filename="/home/dam/Downloads/lwt-logo-wolf-v1.png"
   inkscape:export-xdpi="112.22857"
   inkscape:export-ydpi="112.22857">
  <metadata
     id="metadata3827">
    <rdf:RDF>
      <cc:Work
         rdf:about="">
        <dc:format>image/svg+xml</dc:format>
        <dc:type
           rdf:resource="http://purl.org/dc/dcmitype/StillImage" />
        <dc:title />
      </cc:Work>
    </rdf:RDF>
  </metadata>
  <defs
     id="defs3825" />
  <sodipodi:namedview
     pagecolor="#ffffff"
     bordercolor="#666666"
     borderopacity="1"
     objecttolerance="10"
     gridtolerance="10"
     guidetolerance="10"
     inkscape:pageopacity="0"
     inkscape:pageshadow="2"
     inkscape:window-width="1920"
     inkscape:window-height="892"
     id="namedview3823"
     showgrid="false"
     units="mm"
     inkscape:zoom="0.78767024"
     inkscape:cx="10.433259"
     inkscape:cy="265.31142"
     inkscape:window-x="0"
     inkscape:window-y="28"
     inkscape:window-maximized="1"
     inkscape:current-layer="Capa_1"
     fit-margin-top="0"
     fit-margin-left="0"
     fit-margin-right="0"
     fit-margin-bottom="0" />
  <circle
     id="path3829"
     cx="314.375"
     cy="314.375"
     style="fill:#28dc28;fill-opacity:1;stroke:#ffffff;stroke-width:12.03771687;stroke-miterlimit:4;stroke-dasharray:none;stroke-opacity:1"
     r="308.35614" />
  <g
     id="g4790"
     transform="matrix(0.97845735,0,0,0.8999859,-4.9980314,-188.35338)"
     style="stroke:#ffffff;stroke-width:20.93819322;stroke-miterlimit:4;stroke-dasharray:none;stroke-opacity:1">
    <g
       transform="translate(6.2355315,12.221642)"
       id="g4727"
       style="stroke:#ffffff;stroke-width:20.93819322;stroke-miterlimit:4;stroke-dasharray:none;stroke-opacity:1">
      <g
         id="g3909"
         style="stroke:#ffffff;stroke-width:20.93819322;stroke-miterlimit:4;stroke-dasharray:none;stroke-opacity:1">
        <path
           style="fill:none;stroke:#ffffff;stroke-width:20.93819322;stroke-linecap:butt;stroke-linejoin:miter;stroke-miterlimit:4;stroke-dasharray:none;stroke-opacity:1"
           d="m 450.08977,294.31942 c -1.94809,26.41303 -11.92212,52.2024 -31.65245,70.42025 -15.79319,18.43463 -35.99281,31.54463 -56.41823,44.11894 -15.29473,15.44931 -39.49406,5.88094 -57.21859,16.92627 -22.38575,11.16466 -22.93845,42.84646 -40.82563,59.70894 -11.09827,18.80464 -35.78038,21.26353 -52.7446,33.72844 -13.9429,13.61425 -36.23126,10.85353 -50.6971,14.33581 -19.53919,17.84532 -2.15138,40.03592 19.73795,42.65251 16.73082,3.19873 34.12564,1.10306 51.12299,1.70772"
           id="path3853"
           inkscape:connector-curvature="0" />
        <path
           style="fill:none;stroke:#ffffff;stroke-width:20.93819322;stroke-linecap:butt;stroke-linejoin:miter;stroke-miterlimit:4;stroke-dasharray:none;stroke-opacity:1"
           d="m 231.39411,577.9183 c -20.84169,38.63693 -38.61337,78.81184 -56.54781,118.84962 -14.47138,-14.24305 -19.02692,24.42951 -26.37956,33.92539 -8.13718,16.89065 -14.4357,42.93121 -22.8931,54.63313"
           id="path3857"
           inkscape:connector-curvature="0" />
        <path
           style="fill:none;stroke:#ffffff;stroke-width:20.93819322;stroke-linecap:butt;stroke-linejoin:miter;stroke-miterlimit:4;stroke-dasharray:none;stroke-opacity:1"
           d="m 450.08977,294.31942 c 10.24918,20.91742 30.14888,39.63026 31.07589,63.48811 0.26685,11.40716 -3.13699,23.35705 -7.08993,33.86673"
           id="path3861"
           inkscape:connector-curvature="0" />
        <path
           style="fill:none;stroke:#ffffff;stroke-width:20.93819322;stroke-linecap:butt;stroke-linejoin:miter;stroke-miterlimit:4;stroke-dasharray:none;stroke-opacity:1"
           d="m 490.30154,467.15953 c -28.7221,26.37744 -56.9023,56.69265 -65.61942,95.92411 -11.3827,26.85427 3.02538,54.06569 7.71304,80.51193 1.24637,23.76153 18.72168,48.87747 6.04682,71.79476 -1.68677,4.11345 -4.60093,5.86062 -3.87255,10.67664"
           id="path3881"
           inkscape:connector-curvature="0" />
        <path
           style="fill:none;stroke:#ffffff;stroke-width:20.93819322;stroke-linecap:butt;stroke-linejoin:miter;stroke-miterlimit:4;stroke-dasharray:none;stroke-opacity:1"
           d="m 434.56943,726.06697 c -6.54718,21.09296 -12.32691,43.85536 -11.39631,65.81207 l 2.2723,2.45974 3.48025,1.56971"
           id="path3883"
           inkscape:connector-curvature="0" />
      </g>
    </g>
    <path
       style="fill:none;stroke:#ffffff;stroke-width:20.93819322;stroke-linecap:butt;stroke-linejoin:miter;stroke-miterlimit:4;stroke-dasharray:none;stroke-opacity:1"
       d="m 480.31126,403.8959 c -0.34212,5.75971 0.78172,12.90319 7.55672,10.98814 3.62375,-1.62019 5.77546,-9.24188 2.99305,-12.9699 2.65742,0.38054 5.46675,2.14842 7.73206,2.99305"
       id="path4777"
       inkscape:connector-curvature="0" />
    <path
       style="fill:none;stroke:#ffffff;stroke-width:20.93819322;stroke-linecap:butt;stroke-linejoin:miter;stroke-miterlimit:4;stroke-dasharray:none;stroke-opacity:1"
       d="m 498.59309,404.90719 c 0.47577,-5.39789 -2.19743,-14.47069 6.79774,-11.47338 7.97845,-1.36442 8.53175,8.76938 9.16528,14.71586 0.29116,10.39116 7.73847,18.23515 4.73903,29.18229 -2.36004,10.8755 -10.55603,20.05461 -15.96301,29.93054 -2.69285,3.51246 -6.60017,8.41769 -7.73209,11.7228 l 0.93703,0.39587"
       id="path4779"
       inkscape:connector-curvature="0" />
  </g>
</svg>
