<?xml version="1.0" standalone="no"?>
<!DOCTYPE svg PUBLIC "-//W3C//DTD SVG 20010904//EN"
 "http://www.w3.org/TR/2001/REC-SVG-20010904/DTD/svg10.dtd">
<svg version="1.0" xmlns="http://www.w3.org/2000/svg"
 width="260.000000pt" height="260.000000pt" viewBox="0 0 260.000000 260.000000"
 preserveAspectRatio="xMidYMid meet">
<metadata>
Created by potrace 1.11, written by Peter Selinger 2001-2013
</metadata>
<g transform="translate(0.000000,260.000000) scale(0.100000,-0.100000)"
fill="#000000" stroke="none">
<path d="M0 1300 l0 -1300 354 0 354 0 130 128 c71 70 133 137 136 150 4 12
11 22 15 22 4 0 14 19 21 43 8 23 17 47 22 53 16 21 39 177 29 193 -3 5 -24
12 -46 15 -33 6 -46 3 -67 -13 -34 -27 -57 -28 -34 -2 17 19 24 38 25 73 1 11
7 15 24 11 19 -4 17 -2 -8 16 -16 11 -35 21 -40 21 -17 0 -42 -51 -63 -127
-19 -67 -49 -129 -59 -119 -3 2 3 19 12 37 15 29 15 31 1 26 -9 -4 -16 -4 -16
-1 0 2 10 9 23 14 l22 9 -23 0 c-22 1 -46 -34 -35 -52 2 -4 -1 -7 -7 -7 -6 0
-8 -5 -4 -12 5 -7 2 -9 -8 -5 -11 4 -15 0 -13 -11 1 -9 10 -16 19 -16 20 2 20
-3 2 -22 -20 -19 -30 -18 -22 3 6 16 6 16 -12 0 -23 -21 -39 -22 -22 -2 7 8 9
15 5 15 -4 0 -2 7 5 15 19 23 3 18 -21 -7 l-21 -23 7 25 c6 19 5 22 -5 14 -7
-7 -13 -23 -13 -38 -1 -15 -11 -29 -24 -35 -13 -6 -23 -15 -23 -21 0 -5 -9
-10 -20 -10 -11 0 -20 4 -20 9 0 5 -10 11 -21 14 -14 4 -20 11 -16 21 4 9 -2
24 -14 35 -12 11 -18 24 -14 30 3 6 1 11 -6 11 -7 0 -3 9 9 20 29 27 28 32 -3
18 -14 -6 -25 -15 -25 -20 0 -5 -4 -6 -10 -3 -6 3 1 17 15 31 28 28 31 36 11
28 -10 -4 -13 0 -10 13 7 26 26 48 53 62 19 10 21 15 10 22 -11 7 -11 9 3 9 9
0 20 5 24 11 5 9 -1 10 -20 5 -26 -6 -26 -6 -8 12 11 11 26 22 33 25 10 4 9 6
-3 6 -24 1 -23 22 2 54 11 14 20 30 20 36 0 6 9 28 20 48 22 42 69 66 109 57
25 -6 26 -6 6 10 -20 17 -19 17 7 12 23 -5 26 -3 23 15 -3 14 0 19 9 16 7 -3
19 -1 27 4 11 7 10 9 -5 9 -18 0 -18 1 2 19 12 10 19 21 15 25 -3 3 -1 6 5 6
8 0 9 7 1 27 -6 17 -7 29 -1 31 12 4 3 44 -12 54 -6 4 3 8 19 9 17 1 22 3 13
6 -27 7 -22 23 7 24 44 2 50 5 48 17 -2 7 2 12 8 12 13 0 74 50 62 50 -4 1 7
7 25 15 30 13 36 13 55 0 12 -8 32 -15 45 -15 15 0 21 -4 16 -12 -4 -6 -3 -8
3 -5 12 7 101 -68 91 -78 -12 -12 -63 11 -73 33 -6 13 -19 22 -32 22 -20 0
-22 -3 -12 -18 6 -10 26 -29 45 -41 22 -16 38 -38 48 -69 20 -61 31 -152 19
-152 -10 0 -9 -84 2 -119 6 -20 5 -23 -10 -17 -15 5 -16 4 -5 -9 7 -8 9 -16 4
-16 -5 -1 9 -5 30 -8 38 -6 40 -9 53 -56 7 -27 11 -72 8 -100 -3 -27 -2 -45 1
-38 7 15 34 5 34 -12 0 -7 9 -15 20 -18 13 -3 20 0 20 9 0 8 6 11 15 8 8 -4
15 -2 15 2 0 5 4 15 9 23 7 10 13 11 31 1 21 -11 22 -11 17 10 -3 13 -1 32 5
43 10 20 11 20 24 -4 l14 -24 -6 29 c-5 22 -4 28 7 24 14 -5 39 33 39 59 0 8
4 12 9 8 5 -3 12 3 14 12 3 10 5 -19 6 -65 1 -65 -2 -84 -14 -88 -9 -4 -15
-20 -15 -43 0 -31 -19 -83 -20 -56 -1 6 -13 -15 -28 -45 -27 -56 -72 -120 -72
-104 0 5 -8 -6 -17 -24 -12 -24 -18 -30 -24 -20 -6 9 -9 8 -9 -7 0 -15 -2 -17
-9 -6 -7 11 -9 11 -14 0 -3 -8 -6 -4 -6 9 -1 12 -5 22 -11 22 -5 0 -10 7 -10
15 0 24 -38 0 -43 -27 l-4 -23 -2 23 c0 13 4 33 10 45 10 21 10 21 -5 3 -9
-11 -16 -28 -16 -38 0 -10 -9 -27 -19 -37 -22 -22 -39 -135 -22 -145 6 -4 11
1 12 11 0 10 7 1 14 -20 16 -43 10 -96 -13 -115 -13 -10 3 -12 85 -12 112 0
107 -3 119 76 l7 49 13 -30 c7 -16 13 -45 14 -62 l0 -33 570 0 570 0 0 45 c0
38 -3 45 -20 45 -10 0 -24 8 -29 18 -6 9 -11 12 -11 6 0 -7 -12 -10 -32 -7
-18 3 -41 5 -50 5 -10 -1 -18 4 -18 10 0 5 -7 7 -16 4 -17 -7 -44 15 -44 37 0
7 7 14 15 14 8 0 15 -5 15 -10 0 -5 7 -4 15 3 9 8 25 9 42 5 16 -4 35 -9 43
-11 8 -1 32 -6 53 -9 l37 -8 -2 419 -3 418 -27 15 c-22 12 -30 13 -39 4 -10
-10 -8 -22 9 -56 12 -25 22 -47 22 -50 0 -3 -15 -1 -32 4 -44 12 -52 11 -40
-4 17 -20 0 -103 -18 -92 -14 9 -20 -24 -9 -51 9 -26 6 -38 -12 -40 -5 -1 -13
-2 -19 -3 -5 0 -7 -7 -4 -15 7 -18 -16 -32 -26 -16 -13 21 -32 0 -26 -29 l6
-26 -15 25 c-15 24 -16 21 -11 -52 2 -43 1 -80 -3 -82 -9 -6 -91 72 -91 86 0
6 6 6 14 -1 12 -10 14 -7 11 18 -2 18 2 37 11 45 9 9 10 17 4 21 -5 3 -10 15
-10 26 0 11 4 17 10 14 6 -3 10 2 10 12 0 15 2 16 10 3 8 -13 10 -12 11 5 2
28 2 26 -6 62 -6 29 -4 32 14 28 18 -3 19 0 14 27 -5 23 -3 29 6 23 10 -5 11
4 5 41 l-7 49 28 -25 27 -25 -7 25 c-4 14 -10 31 -12 38 -3 6 0 12 7 12 7 0 9
8 5 21 -5 15 -4 19 4 15 14 -9 14 9 0 35 -7 15 -7 24 2 35 9 11 9 17 -1 29
-17 20 7 20 34 0 24 -18 48 -20 26 -2 -8 7 -21 24 -27 39 -10 23 -10 26 2 21
8 -3 15 -1 15 5 0 14 -58 62 -75 62 -24 0 -45 -12 -45 -26 0 -8 -5 -14 -10
-14 -6 0 -15 -11 -20 -25 -5 -14 -14 -25 -19 -25 -6 0 -8 -6 -5 -13 6 -18 -43
-41 -50 -24 -2 7 -5 2 -5 -10 -1 -26 -11 -29 -30 -11 -11 11 -13 10 -8 -4 3
-10 2 -20 -2 -23 -5 -2 -14 -41 -22 -85 -7 -44 -16 -75 -20 -69 -4 6 -10 -8
-15 -32 -8 -43 -8 -43 -15 -14 -5 21 -7 24 -9 10 -2 -17 -3 -17 -10 5 -7 23
-8 23 -10 -10 -2 -21 -6 -6 -10 38 -5 41 -11 90 -14 110 l-6 37 17 -32 c17
-34 40 -46 28 -15 -3 9 -9 31 -11 47 l-5 30 20 -35 20 -35 -5 62 c-5 54 -3 62
10 57 20 -8 20 -10 -4 54 -11 29 -18 57 -15 62 3 4 -1 11 -7 13 -9 4 -10 6 -1
6 6 1 15 -3 18 -9 3 -5 11 -10 16 -10 6 0 -3 17 -20 37 -17 21 -31 42 -31 48
0 5 9 -1 20 -15 11 -14 20 -20 19 -15 0 6 -8 20 -18 33 -19 22 -32 29 -30 15
3 -21 -3 -76 -8 -65 -9 22 -23 13 -24 -15 l-1 -28 -14 32 c-19 45 -31 48 -32
6 -3 -67 -23 -96 -37 -53 -3 11 -16 25 -27 31 -19 10 -20 9 -13 -43 4 -35 3
-48 -3 -39 -6 8 -17 11 -25 8 -10 -4 -17 2 -21 18 -3 13 -9 31 -12 42 -5 15
-4 15 5 3 17 -24 14 15 -3 49 -8 15 -15 38 -15 50 -1 11 -1 30 -2 41 0 11 -4
22 -10 25 -5 4 -9 12 -9 18 1 8 5 7 13 -3 7 -8 23 -24 36 -35 l24 -20 -20 30
c-11 17 -32 50 -48 74 -20 33 -29 40 -36 30 -5 -9 -2 -22 7 -36 24 -38 1 -26
-45 22 -24 25 -49 45 -57 45 -23 0 -27 -25 -10 -59 9 -17 19 -52 22 -78 l6
-48 -26 28 c-14 15 -28 27 -31 27 -4 0 -6 -24 -5 -52 2 -76 0 -87 -11 -58 -12
28 -30 115 -30 144 0 11 -5 29 -11 40 -10 18 -9 19 3 9 13 -10 15 -7 14 20 -1
46 -10 55 -63 63 -26 5 -50 9 -54 10 -5 1 -20 2 -35 3 -25 1 -26 2 -11 17 13
13 22 14 59 4 24 -7 52 -16 61 -21 30 -15 61 -11 54 7 -3 9 -6 19 -6 24 0 10
-81 53 -87 46 -3 -2 7 -12 21 -22 31 -19 28 -31 -3 -15 -17 10 -20 9 -15 -4 8
-19 2 -19 -43 0 -19 8 -55 15 -79 15 -24 0 -44 5 -44 10 0 6 4 10 9 10 5 0 11
9 14 20 4 16 1 20 -11 16 -55 -16 -89 -17 -95 -3 -8 20 3 57 16 57 6 0 8 3 5
6 -4 3 -15 1 -26 -5 -26 -14 -70 32 -74 78 -2 23 -11 39 -30 52 -15 11 -30 28
-33 39 -11 36 -25 21 -25 -28 0 -28 -6 -56 -15 -68 -13 -16 -14 -16 -9 -1 3 9
3 17 -1 17 -4 0 -14 -8 -22 -17 -8 -10 -12 -12 -8 -6 5 11 -6 56 -38 145 -5
15 -29 49 -53 75 -24 26 -46 55 -50 65 -3 10 -12 18 -20 18 -8 0 -14 4 -14 10
0 10 -110 100 -123 100 -10 0 5 -17 65 -78 26 -26 48 -51 48 -55 0 -5 25 -42
55 -82 69 -91 89 -154 79 -239 -5 -45 -9 -56 -15 -41 -7 19 -8 19 -8 1 -1 -11
-4 -17 -7 -13 -4 3 -19 0 -35 -9 -26 -13 -32 -13 -58 1 -37 19 -45 43 -36 109
4 34 2 62 -6 79 -15 33 -3 49 17 23 20 -28 27 -14 15 31 -7 25 -20 44 -36 53
-13 7 -27 21 -30 31 -8 23 -74 79 -94 79 -10 0 -7 -8 9 -25 20 -21 24 -37 26
-93 2 -72 18 -147 34 -157 7 -4 7 -13 0 -24 -5 -10 -7 -21 -3 -24 3 -4 0 -13
-7 -22 -9 -10 -17 -12 -30 -5 -13 7 -20 6 -22 -2 -7 -20 -42 28 -57 76 -7 25
-16 46 -20 46 -11 0 -32 50 -26 60 3 5 1 11 -4 14 -5 4 -8 14 -7 24 2 9 0 19
-5 22 -4 3 -9 12 -11 20 -2 8 -12 29 -24 45 -29 41 -50 91 -64 150 -6 27 -15
54 -19 60 -35 45 -1 101 54 89 88 -18 360 -151 387 -189 5 -6 8 -4 8 4 0 8 3
12 6 8 3 -3 15 3 26 13 24 22 48 16 48 -14 0 -19 2 -18 20 9 l20 30 1 -35 1
-35 10 29 c8 21 13 25 19 15 6 -11 13 -8 33 10 25 24 25 24 21 2 -4 -22 3 -21
34 3 14 11 34 16 69 18 12 0 29 10 37 21 13 19 15 19 15 4 0 -10 5 -15 10 -12
5 3 10 -1 10 -11 0 -12 3 -14 13 -6 12 10 40 2 38 -12 -3 -19 1 -19 19 4 l20
25 -10 -28 c-8 -22 -7 -26 3 -20 6 4 24 8 38 8 21 1 25 -3 21 -20 l-5 -20 23
20 c22 19 23 19 17 1 -6 -14 -3 -17 8 -12 8 3 15 0 15 -6 0 -9 3 -9 12 0 7 7
19 12 27 12 11 0 10 -4 -5 -16 -16 -13 -14 -13 9 1 16 9 35 14 42 11 7 -2 19
2 26 10 7 8 18 13 26 10 8 -3 12 -2 9 3 -3 5 3 19 14 32 32 39 35 43 48 72 6
15 12 38 12 51 0 12 7 31 15 42 21 28 18 44 -10 44 -18 0 -25 5 -25 18 0 10 3
22 8 26 4 4 8 12 8 17 1 5 2 10 4 12 1 1 3 14 4 30 l2 27 -878 0 -878 0 0
-1300z m290 765 c52 -27 122 -47 138 -39 10 4 28 6 41 5 13 -2 21 2 17 7 -5 8
29 6 62 -4 7 -2 15 -3 18 -3 12 0 43 -49 52 -86 6 -22 10 -82 9 -133 -2 -83 0
-93 15 -89 17 5 28 -11 28 -39 0 -9 -7 -14 -17 -12 -10 1 -23 -1 -30 -5 -6 -4
-14 -3 -18 3 -3 6 1 13 9 16 9 3 16 10 16 16 0 5 -4 7 -8 4 -5 -3 -17 5 -27
16 l-18 21 -13 -24 c-7 -13 -13 -32 -14 -41 0 -10 -4 -18 -9 -18 -5 0 -11 -23
-13 -52 -3 -29 -10 -54 -16 -56 -6 -2 -14 -19 -18 -38 -3 -19 -10 -37 -15 -40
-5 -3 -9 -16 -9 -30 0 -24 -28 -90 -35 -82 -10 11 -70 176 -62 171 7 -4 8 1 3
13 -4 10 -9 47 -11 82 -4 59 -3 63 12 50 15 -11 16 -11 9 7 -5 11 -9 25 -9 32
0 7 -4 10 -8 8 -4 -3 -9 2 -13 10 -3 8 -1 15 5 15 6 0 1 13 -10 29 -25 35 -26
41 -5 41 8 0 13 -4 10 -9 -6 -9 22 -26 38 -22 4 1 14 -4 22 -10 11 -9 14 -6
14 20 0 19 4 30 10 26 6 -4 11 6 11 22 2 25 2 25 8 -7 6 -33 7 -31 13 24 8 68
-1 88 -52 112 -19 9 -43 21 -52 25 -23 12 -31 11 -23 -1 12 -20 -23 -9 -49 15
-45 42 -69 33 -54 -22 5 -19 7 -37 4 -40 -5 -5 -45 56 -64 100 l-12 27 46 0
c25 0 58 -7 74 -15z m310 -1 c0 -2 -7 -4 -15 -4 -8 0 -15 4 -15 10 0 5 7 7 15
4 8 -4 15 -8 15 -10z m-304 -176 c3 -23 1 -23 -22 3 -19 21 -19 21 0 18 11 -2
20 -12 22 -21z m24 -38 c0 -5 -2 -10 -4 -10 -3 0 -8 5 -11 10 -3 6 -1 10 4 10
6 0 11 -4 11 -10z m926 -135 c10 -8 24 -15 31 -15 7 0 23 -10 36 -22 13 -13
32 -28 43 -35 17 -11 17 -12 0 -6 -16 5 -17 2 -11 -18 4 -13 20 -38 36 -54 16
-17 29 -35 29 -41 0 -5 10 -20 23 -34 18 -20 87 -151 87 -166 0 -2 -7 -1 -16
3 -14 5 -15 -1 -9 -47 13 -96 13 -153 -1 -192 -14 -40 -21 -93 -30 -223 -4
-53 -11 -83 -20 -88 -8 -4 -14 -18 -14 -30 0 -12 -5 -29 -11 -37 -8 -11 -9 -5
-5 25 3 22 6 65 7 95 l1 55 13 -50 13 -50 1 72 c1 51 -5 85 -18 115 -11 24
-25 63 -31 88 -12 45 -51 160 -54 160 -1 0 -2 -44 -2 -97 -1 -72 -5 -106 -17
-128 -10 -17 -17 -23 -18 -15 -1 8 -5 4 -10 -10 -9 -26 -7 -11 10 80 3 19 4
61 1 93 -5 52 -4 57 8 40 14 -17 14 -17 7 2 -4 11 -12 38 -18 60 -17 66 -37
106 -60 115 -12 5 -34 17 -49 28 -22 14 -25 21 -16 30 9 9 9 12 0 12 -7 0 -12
4 -12 10 0 5 8 7 18 4 9 -3 5 2 -10 11 -16 8 -28 23 -28 31 0 8 4 13 9 10 4
-3 6 7 4 22 -2 15 -5 36 -6 47 -2 11 -6 26 -11 33 -7 12 -4 12 14 2 15 -8 25
-9 33 -1 12 12 47 -3 60 -25 14 -24 26 -15 14 10 -10 20 -59 60 -69 56 -7 -3
-45 15 -57 28 -13 13 -9 13 30 7 24 -4 51 -13 60 -21 19 -17 38 -19 21 -2 -7
7 -12 19 -12 27 0 8 -7 23 -17 33 -19 22 -5 24 23 3z m-340 -25 c5 -5 29 -11
52 -12 50 -2 65 -10 56 -31 -8 -22 -48 -25 -116 -8 -61 14 -73 31 -35 49 29
14 31 14 43 2z m-86 -37 c-11 -17 -11 -17 -6 0 3 10 6 24 7 30 0 9 2 9 5 0 3
-7 0 -20 -6 -30z m-10 -77 c0 -3 -4 -8 -10 -11 -5 -3 -10 -1 -10 4 0 6 5 11
10 11 6 0 10 -2 10 -4z m610 -18 c11 -12 20 -29 20 -37 0 -8 -11 0 -25 19 -14
19 -25 35 -25 37 0 8 11 1 30 -19z m135 2 c3 -5 2 -10 -4 -10 -5 0 -13 5 -16
10 -3 6 -2 10 4 10 5 0 13 -4 16 -10z m255 -129 c0 -17 -5 -33 -12 -37 -7 -5
-8 -3 -3 6 6 10 4 12 -9 7 -12 -5 -16 -3 -12 5 3 7 9 21 12 31 10 27 24 20 24
-12z m-1068 -3 c-16 -16 -15 -31 1 -23 6 4 3 -1 -7 -9 -21 -17 -36 -21 -36 -8
0 14 31 52 43 52 8 0 8 -3 -1 -12z m16 -62 c-7 -8 -15 -12 -17 -11 -5 6 10 25
20 25 5 0 4 -6 -3 -14z m257 0 c16 -11 17 -16 6 -29 -17 -22 -92 -59 -100 -51
-3 4 0 9 7 11 7 3 26 17 42 32 23 21 27 30 18 39 -17 17 4 15 27 -2z m800 -7
c4 -11 4 -23 0 -27 -7 -7 -25 17 -25 36 0 20 18 14 25 -9z m-722 -26 c-7 -2
-21 -2 -30 0 -10 3 -4 5 12 5 17 0 24 -2 18 -5z m-420 -18 c-3 -9 -8 -14 -10
-11 -3 3 -2 9 2 15 9 16 15 13 8 -4z m51 -35 c-15 -22 -29 -38 -32 -36 -6 7
38 76 49 76 5 0 -3 -18 -17 -40z m885 -10 c1 -13 0 -13 -9 0 -5 8 -9 24 -9 35
l0 20 9 -20 c5 -11 9 -27 9 -35z m-453 19 c16 -13 24 -58 10 -53 -6 2 -20 18
-31 34 -11 16 -24 31 -30 33 -5 2 1 2 15 0 14 -3 30 -9 36 -14z m-521 -58 c-4
-17 -10 -31 -14 -31 -4 0 -14 -18 -21 -40 -20 -62 -24 -39 -4 27 18 58 33 87
41 79 3 -3 2 -18 -2 -35z m1220 -96 c4 -60 3 -65 -6 -35 -5 20 -19 41 -30 48
-18 12 -19 11 -10 -6 5 -10 8 -30 5 -43 -4 -14 -2 -19 3 -13 4 7 9 -21 10 -65
2 -83 -4 -75 -31 45 -18 81 -20 114 -7 114 5 0 7 10 4 23 -4 18 -3 19 7 7 9
-12 11 -10 7 14 l-5 28 24 -24 c20 -19 25 -37 29 -93z m-1178 99 c-3 -3 -12
-4 -19 -1 -8 3 -5 6 6 6 11 1 17 -2 13 -5z m910 -41 c-3 -10 -5 -2 -5 17 0 19
2 27 5 18 2 -10 2 -26 0 -35z m-911 -69 c-3 -8 -12 -14 -21 -14 -11 0 -13 4
-6 18 5 9 13 26 17 37 7 19 8 19 12 -3 2 -13 1 -30 -2 -38z m1739 46 c3 -5 -1
-10 -9 -10 -9 0 -16 5 -16 10 0 6 4 10 9 10 6 0 13 -4 16 -10z m-1689 -8 c-2
-4 -1 -14 4 -22 5 -8 4 -22 -2 -34 -10 -19 -11 -19 -21 -1 -7 13 -7 20 0 22 6
2 9 13 6 23 -3 12 0 20 6 20 7 0 10 -4 7 -8z m1170 -50 c4 -21 3 -32 -5 -32
-6 0 -11 11 -11 24 0 13 -3 33 -6 43 -5 13 -4 15 4 8 7 -6 15 -25 18 -43z
m-1336 -13 c0 -4 3 -15 7 -25 4 -11 3 -15 -4 -11 -6 4 -23 -3 -39 -15 -15 -13
-24 -16 -19 -9 4 8 7 31 7 52 -2 38 -1 38 23 27 14 -6 25 -15 25 -19z m170
-24 c0 -2 -7 -8 -15 -15 -12 -10 -15 -10 -15 2 0 8 7 15 15 15 8 0 15 -1 15
-2z m1190 -65 c1 8 6 2 10 -15 9 -34 11 -87 3 -66 -5 11 -7 11 -14 0 -6 -10
-9 -6 -9 14 0 16 -4 26 -9 23 -4 -3 -9 20 -9 52 l0 57 13 -40 c7 -22 14 -33
15 -25z m-1413 3 c14 9 13 -79 -1 -119 l-14 -39 5 52 c5 41 1 60 -17 95 -21
41 -21 42 -2 25 12 -11 24 -17 29 -14z m1370 -45 c-3 -7 -5 -2 -5 12 0 14 2
19 5 13 2 -7 2 -19 0 -25z m-15 -22 c2 -19 0 -32 -4 -30 -8 5 -12 64 -4 64 2
0 6 -15 8 -34z m-585 -38 c-3 -8 -6 -5 -6 6 -1 11 2 17 5 13 3 -3 4 -12 1 -19z
m740 -85 c-2 -16 -4 -3 -4 27 0 30 2 43 4 28 2 -16 2 -40 0 -55z m40 55 c-3
-8 -6 -5 -6 6 -1 11 2 17 5 13 3 -3 4 -12 1 -19z m-57 -72 c0 -39 -6 -31 -14
19 -5 29 -4 36 3 25 6 -8 11 -28 11 -44z m-32 -36 c0 -9 -3 -7 -8 5 -5 11 -8
29 -8 40 0 16 2 15 8 -5 4 -14 8 -32 8 -40z m-191 -22 c-3 -7 -5 -2 -5 12 0
14 2 19 5 13 2 -7 2 -19 0 -25z m170 -20 c-3 -7 -5 -2 -5 12 0 14 2 19 5 13 2
-7 2 -19 0 -25z m-162 -95 c2 -47 0 -70 -5 -57 -10 26 -18 115 -12 132 9 26
14 2 17 -75z m45 47 c0 -22 -3 -40 -8 -40 -4 0 -6 18 -4 40 2 22 6 40 8 40 2
0 4 -18 4 -40z m-463 -27 c-3 -10 -5 -2 -5 17 0 19 2 27 5 18 2 -10 2 -26 0
-35z m436 -28 c4 -34 3 -42 -3 -25 -8 25 -13 87 -6 79 2 -2 6 -26 9 -54z m473
-189 c3 -18 0 -32 -8 -37 -12 -8 -20 17 -42 131 -6 33 -5 32 19 -15 14 -27 28
-63 31 -79z m-1388 84 c-7 -11 -18 -22 -26 -25 -8 -3 -6 4 5 20 21 29 38 34
21 5z m769 -12 c-3 -8 -6 -5 -6 6 -1 11 2 17 5 13 3 -3 4 -12 1 -19z m-1259
-40 c-2 -22 -8 -32 -17 -30 -8 2 -11 -3 -8 -12 3 -8 -1 -20 -9 -26 -21 -19
-19 15 4 38 9 9 16 27 14 40 -2 12 2 22 8 22 7 0 10 -13 8 -32z m1784 -19 c12
-7 15 -75 5 -85 -11 -11 -14 -3 -20 61 -3 33 -3 53 0 45 3 -8 10 -18 15 -21z
m38 -23 c0 -39 -6 -31 -14 19 -5 29 -4 36 3 25 6 -8 11 -28 11 -44z m-1366 29
c-4 -8 -11 -15 -16 -15 -6 0 -5 6 2 15 7 8 14 15 16 15 2 0 1 -7 -2 -15z
m1306 -78 c0 -18 -13 2 -27 41 -19 55 -15 63 7 13 11 -24 20 -48 20 -54z m-21
-4 c6 -12 11 -41 10 -65 l-1 -43 -11 32 c-17 45 -27 51 -28 17 -3 -78 -14 -63
-14 18 0 86 1 93 16 79 9 -9 21 -26 28 -38z m-1446 35 c20 -21 14 -43 -11 -42
-12 0 -22 -5 -22 -13 0 -7 -6 -13 -14 -13 -20 0 -8 38 16 51 10 5 16 14 13 20
-9 13 4 11 18 -3z m137 2 c0 -6 -19 -31 -41 -55 -28 -30 -50 -45 -67 -45 l-25
0 25 23 c13 12 37 31 52 42 16 11 34 25 40 32 14 15 16 16 16 3z m-270 -110
c0 -5 -5 -10 -11 -10 -5 0 -7 5 -4 10 3 6 8 10 11 10 2 0 4 -4 4 -10z m1507
-12 c-3 -8 -6 -5 -6 6 -1 11 2 17 5 13 3 -3 4 -12 1 -19z m-218 -50 c-1 -12 1
-36 5 -53 l8 -30 -15 26 c-8 14 -14 45 -14 69 0 29 2 38 8 27 5 -8 8 -26 8
-39z m211 -2 c0 -20 0 -20 -15 0 -8 10 -14 28 -14 39 0 20 0 20 14 1 8 -11 15
-29 15 -40z m-281 -23 c-1 -47 -1 -47 -9 -14 -7 31 -4 61 6 61 2 0 4 -21 3
-47z m542 2 l0 -20 9 20 c8 18 9 17 9 -7 1 -34 -28 -110 -39 -103 -5 3 -11 -4
-15 -15 -7 -23 -23 -18 -35 14 -8 20 -9 20 -10 1 -1 -30 -20 3 -20 36 0 33 9
42 28 26 13 -10 14 -8 10 16 -4 21 -2 27 8 23 9 -3 11 1 8 12 -5 16 -4 16 9 0
18 -23 28 -12 21 21 -4 20 -3 23 5 11 6 -8 11 -24 12 -35z m-633 -45 c0 -19
-4 -46 -9 -60 -6 -19 -8 -12 -5 27 2 29 -1 50 -6 47 -10 -6 -11 17 -1 42 6 16
7 16 14 -2 4 -10 7 -35 7 -54z m141 10 c0 -10 -3 -8 -9 5 -12 27 -12 43 0 25
5 -8 9 -22 9 -30z m106 20 c3 -5 1 -10 -4 -10 -6 0 -11 5 -11 10 0 6 2 10 4
10 3 0 8 -4 11 -10z m-150 -97 l4 -48 -12 38 c-7 22 -15 35 -19 31 -5 -4 -8 7
-8 25 0 29 1 31 16 17 8 -9 17 -37 19 -63z m582 45 c-3 -7 -5 -2 -5 12 0 14 2
19 5 13 2 -7 2 -19 0 -25z m-410 -10 c-3 -8 -6 -5 -6 6 -1 11 2 17 5 13 3 -3
4 -12 1 -19z m-483 -13 c-4 -8 -11 -12 -16 -9 -6 4 -5 10 3 15 19 12 19 11 13
-6z m743 -57 c-3 -8 -6 -5 -6 6 -1 11 2 17 5 13 3 -3 4 -12 1 -19z m-380 -40
c-3 -8 -6 -5 -6 6 -1 11 2 17 5 13 3 -3 4 -12 1 -19z"/>
<path d="M1195 1540 c-4 -6 8 -10 30 -10 22 0 34 4 30 10 -3 6 -17 10 -30 10
-13 0 -27 -4 -30 -10z"/>
<path d="M1240 1495 c7 -8 22 -15 34 -15 21 1 21 1 2 15 -27 21 -53 20 -36 0z"/>
<path d="M1254 1435 c21 -16 32 -13 21 4 -3 6 -14 11 -23 11 -15 -1 -15 -2 2
-15z"/>
<path d="M1230 1425 c0 -2 14 -11 30 -20 17 -9 30 -12 30 -7 0 5 -11 14 -25
20 -28 13 -35 14 -35 7z"/>
<path d="M2572 2580 c7 -11 16 -20 20 -20 5 0 8 9 8 20 0 13 -7 20 -20 20 -18
0 -19 -2 -8 -20z"/>
<path d="M2585 2290 c-3 -5 -1 -10 4 -10 6 0 11 5 11 10 0 6 -2 10 -4 10 -3 0
-8 -4 -11 -10z"/>
<path d="M2576 2211 c-12 -5 -20 -19 -21 -39 -2 -20 1 -29 8 -25 5 3 8 2 5 -3
-2 -5 -12 -25 -21 -45 -18 -39 -44 -56 -60 -40 -7 7 -15 5 -24 -7 -12 -16 -13
-16 -7 1 11 31 -2 18 -60 -57 -32 -41 -63 -77 -69 -80 -9 -3 -9 -5 1 -5 6 -1
12 -8 12 -16 0 -8 -6 -12 -14 -9 -8 3 -17 1 -21 -5 -3 -7 3 -11 15 -11 12 0
19 -4 15 -10 -3 -5 -13 -6 -23 -3 -12 4 -14 3 -7 -5 6 -6 21 -12 34 -14 28 -4
41 -28 15 -28 -9 0 -14 -3 -11 -7 4 -3 -1 -15 -10 -25 -16 -18 -16 -19 3 -13
12 4 10 1 -6 -9 -23 -14 -23 -15 -5 -17 11 -1 27 -2 35 -1 9 1 21 -8 28 -19
11 -17 9 -21 -15 -31 l-28 -12 33 -4 c33 -3 87 -46 77 -62 -3 -5 -1 -11 4 -15
6 -3 8 -12 5 -19 -3 -8 4 -16 15 -19 21 -5 30 -37 11 -37 -22 0 -12 -22 33
-71 10 -11 15 -24 12 -29 -4 -6 4 -10 15 -10 16 0 20 -5 16 -15 -4 -10 1 -15
14 -15 20 0 20 9 20 350 0 193 -3 349 -7 348 -5 -2 -8 2 -8 7 0 6 3 9 8 8 4
-2 7 26 7 62 0 36 -1 65 -2 64 -2 0 -11 -4 -22 -8z m-151 -401 c3 -5 1 -10 -4
-10 -6 0 -11 5 -11 10 0 6 2 10 4 10 3 0 8 -4 11 -10z"/>
<path d="M2373 2113 c10 -9 -31 -35 -43 -28 -6 3 -10 -1 -10 -9 0 -9 -4 -16
-10 -16 -5 0 -10 -16 -10 -35 0 -21 -5 -35 -12 -35 -10 0 -10 -2 0 -8 7 -5 10
-16 6 -25 -9 -24 12 -21 29 3 8 11 34 41 57 66 35 37 40 48 29 56 -11 7 -9 8
5 4 19 -6 36 8 36 29 0 6 -4 4 -9 -4 -8 -12 -12 -12 -24 -2 -12 9 -16 9 -20
-1 -4 -10 -6 -10 -6 0 -1 6 -6 12 -13 12 -6 0 -8 -3 -5 -7z m-3 -67 c0 -8 -8
-22 -17 -33 -10 -10 -14 -13 -9 -6 5 8 6 17 2 20 -4 4 -11 1 -16 -7 -6 -8 -10
-11 -10 -6 0 12 31 46 42 46 4 0 8 -6 8 -14z"/>
<path d="M647 1989 c7 -7 15 -10 18 -7 3 3 -2 9 -12 12 -14 6 -15 5 -6 -5z"/>
<path d="M1458 1683 c6 -2 18 -2 25 0 6 3 1 5 -13 5 -14 0 -19 -2 -12 -5z"/>
<path d="M2126 1368 c3 -5 10 -6 15 -3 13 9 11 12 -6 12 -8 0 -12 -4 -9 -9z"/>
<path d="M870 1136 c0 -2 7 -7 16 -10 8 -3 12 -2 9 4 -6 10 -25 14 -25 6z"/>
<path d="M2510 1070 c0 -5 12 -10 28 -9 24 0 25 1 7 9 -27 12 -35 12 -35 0z"/>
<path d="M2112 975 c0 -16 2 -22 5 -12 2 9 2 23 0 30 -3 6 -5 -1 -5 -18z"/>
<path d="M935 802 c37 -24 75 -37 75 -24 0 5 -17 14 -37 21 -21 7 -45 15 -53
17 -8 3 -1 -3 15 -14z"/>
<path d="M811 740 c-21 -18 -22 -20 -4 -20 11 0 28 9 38 20 24 27 -1 27 -34 0z"/>
<path d="M1150 746 c0 -2 11 -11 25 -20 14 -9 25 -13 25 -8 0 5 -11 14 -25 20
-14 6 -25 10 -25 8z"/>
<path d="M807 703 c-12 -12 -7 -32 6 -27 8 3 14 11 14 19 0 16 -9 19 -20 8z"/>
<path d="M1120 650 c0 -10 6 -23 13 -27 7 -4 18 -19 24 -33 9 -22 12 -23 18
-7 11 28 -2 63 -30 75 -22 10 -25 9 -25 -8z"/>
<path d="M828 615 c-6 -14 -15 -25 -20 -25 -4 0 -8 -7 -8 -15 0 -31 26 -13 37
25 12 45 8 52 -9 15z"/>
<path d="M595 391 c-3 -5 -2 -12 3 -15 5 -3 9 1 9 9 0 17 -3 19 -12 6z"/>
<path d="M1250 378 c-12 -22 -12 -22 6 -6 10 10 15 20 12 24 -4 3 -12 -5 -18
-18z"/>
<path d="M1041 167 c-6 -6 -11 -19 -11 -29 0 -10 -7 -18 -15 -18 -8 0 -18 -17
-25 -42 -6 -24 -15 -51 -20 -60 -9 -17 -3 -18 73 -18 l84 0 1 88 1 87 -38 1
c-22 1 -44 -3 -50 -9z m29 -17 c0 -5 -4 -10 -10 -10 -5 0 -10 5 -10 10 0 6 5
10 10 10 6 0 10 -4 10 -10z m-40 -55 c0 -8 -4 -15 -10 -15 -5 0 -10 7 -10 15
0 8 5 15 10 15 6 0 10 -7 10 -15z"/>
</g>
</svg>
