<?xml version="1.0" standalone="no"?>
<!DOCTYPE svg PUBLIC "-//W3C//DTD SVG 20010904//EN"
 "http://www.w3.org/TR/2001/REC-SVG-20010904/DTD/svg10.dtd">
<svg version="1.0" xmlns="http://www.w3.org/2000/svg"
 width="1838.000000pt" height="1838.000000pt" viewBox="0 0 1838.000000 1838.000000"
 preserveAspectRatio="xMidYMid meet">
<metadata>
Created by potrace 1.14, written by Peter Selinger 2001-2017
</metadata>
<g transform="translate(0.000000,1838.000000) scale(0.100000,-0.100000)"
fill="#000000" stroke="none">
<path d="M8124 18342 c-24 -29 -31 -47 -33 -83 -1 -45 0 -47 190 -275 105
-126 208 -249 228 -273 20 -24 60 -72 89 -106 28 -34 52 -68 52 -75 0 -6 -28
-64 -63 -128 -111 -207 -113 -210 -100 -223 9 -9 19 -6 43 11 l32 23 -7 -24
c-4 -13 -52 -134 -106 -268 -55 -135 -99 -249 -99 -256 0 -6 16 -40 34 -76 31
-58 34 -69 26 -104 -16 -67 -12 -102 11 -119 14 -10 29 -12 43 -6 11 4 24 8
29 8 61 7 75 15 80 48 14 85 161 333 369 623 9 13 23 21 30 18 8 -2 67 -92
132 -198 166 -271 218 -353 229 -360 5 -4 18 -4 29 -1 17 4 19 11 15 52 -3 26
-8 53 -12 60 -4 7 -1 10 11 8 12 -2 35 -34 63 -90 24 -49 59 -106 78 -128 33
-38 37 -40 91 -40 82 0 130 37 172 132 35 81 58 281 34 308 -7 9 -16 34 -20
55 -20 133 -120 304 -313 540 -36 44 -84 100 -108 125 -23 25 -43 53 -43 62 0
9 55 95 122 190 66 95 123 181 126 191 5 21 -8 22 -53 3 -34 -15 -35 -15 -35
10 0 13 3 24 8 24 4 1 23 24 42 51 19 28 52 72 72 98 37 48 37 48 20 79 -28
50 -68 89 -105 101 -53 18 -251 -28 -329 -76 -83 -50 -163 -117 -203 -171 -19
-26 -38 -51 -42 -57 -5 -5 -15 -23 -23 -40 -8 -16 -16 -32 -17 -34 -2 -3 -105
80 -123 99 -3 3 -43 37 -90 75 -47 38 -87 72 -90 75 -3 3 -32 28 -65 56 -65
55 -91 69 -100 53 -4 -5 -10 -7 -13 -5 -4 2 -36 7 -72 11 -83 8 -127 20 -168
45 -18 11 -33 20 -35 19 -1 0 -16 -17 -33 -37z"/>
<path d="M7771 18189 c-22 -30 -23 -37 -27 -367 -2 -185 -6 -355 -8 -377 -2
-22 -7 -87 -11 -145 -3 -58 -8 -123 -10 -145 -11 -116 -18 -208 -20 -280 -1
-51 -8 -91 -18 -111 -19 -38 -74 -87 -126 -113 -50 -26 -219 -76 -227 -68 -4
4 -8 26 -10 49 -8 110 -16 153 -35 189 -17 35 -19 51 -13 142 3 56 8 110 10
120 2 11 6 64 10 119 3 55 8 108 9 117 2 9 4 31 4 50 1 29 4 33 22 28 26 -7
43 30 69 152 27 124 31 158 24 199 -5 33 -13 41 -62 70 -69 39 -70 40 -202
126 -119 78 -183 127 -221 168 -20 23 -28 26 -36 16 -27 -32 -35 -112 -38
-343 -3 -264 -8 -309 -37 -375 -18 -43 -19 -86 -3 -171 2 -9 6 -40 10 -70 3
-30 8 -65 10 -79 10 -68 17 -140 29 -295 6 -69 9 -199 7 -285 l-1 -45 -49 76
c-27 42 -54 79 -60 83 -13 8 -83 228 -75 235 3 4 18 -9 33 -26 24 -29 29 -31
46 -19 16 11 16 14 3 22 -8 5 -21 20 -28 33 -11 21 -10 26 4 37 15 10 7 27
-75 155 -273 428 -457 669 -570 750 -26 19 -27 18 -55 -3 -15 -12 -33 -24 -38
-25 -6 -1 -33 -8 -61 -14 -27 -6 -66 -22 -85 -35 l-34 -24 -31 29 c-26 25 -34
27 -58 19 -21 -7 -27 -16 -26 -32 4 -34 -9 -62 -36 -74 -18 -8 -23 -16 -18
-29 13 -35 70 -119 119 -173 49 -54 50 -56 43 -105 -4 -27 -7 -212 -8 -410 0
-198 0 -366 0 -373 -1 -7 -6 -10 -12 -6 -6 3 -9 17 -7 29 4 18 -3 26 -36 43
-34 16 -44 28 -59 70 -14 41 -21 49 -36 45 -18 -5 -18 -8 -6 -44 16 -44 13
-47 -15 -19 -22 22 -40 26 -40 9 0 -6 12 -61 26 -122 15 -62 33 -139 40 -172
8 -33 17 -69 19 -80 3 -11 18 -75 34 -143 20 -81 40 -139 60 -172 17 -28 31
-52 31 -54 0 -3 16 -31 35 -64 28 -46 36 -72 39 -121 2 -34 7 -65 10 -68 17
-18 139 -4 315 35 121 26 124 28 143 62 15 29 17 46 12 100 -9 85 -8 135 6
160 6 12 7 20 1 20 -25 0 -95 88 -136 173 -80 166 -101 304 -59 395 14 30 105
112 125 112 5 0 52 -55 106 -122 292 -370 509 -596 540 -564 4 4 2 15 -4 25
-6 9 -23 41 -38 70 -23 43 -26 56 -17 76 9 20 6 30 -18 63 -45 63 -93 152 -81
152 12 0 46 -51 79 -120 12 -25 41 -65 65 -90 48 -52 184 -170 195 -170 11 1
120 41 346 129 181 70 212 79 225 67 28 -25 85 -35 118 -21 85 36 152 220 179
490 4 39 9 84 11 100 2 17 5 186 7 378 l4 347 -24 0 c-20 0 -24 5 -25 33 -1
17 -3 46 -4 62 -1 17 -6 89 -10 160 -10 172 -9 166 -26 197 -25 48 -119 197
-127 202 -5 3 -19 -8 -31 -25z m-1659 -1189 c107 -146 111 -155 88 -207 -13
-30 -29 -46 -62 -62 -24 -11 -47 -21 -50 -21 -2 0 -10 26 -17 58 -7 31 -24 77
-39 102 -21 37 -25 57 -25 113 1 38 -3 83 -9 99 -8 23 -8 32 3 39 17 10 7 20
111 -121z"/>
<path d="M11124 18204 c-8 -4 -7 -17 3 -46 8 -23 13 -55 11 -72 -3 -29 -6 -31
-40 -30 -37 2 -38 1 -38 -35 0 -20 -9 -49 -19 -65 l-19 -28 34 -59 35 -59 -88
-88 c-275 -276 -420 -521 -504 -852 -16 -65 -20 -103 -16 -165 6 -102 27 -225
38 -226 5 -1 13 -2 18 -3 17 -2 19 -10 25 -85 6 -87 14 -99 49 -77 22 15 25
15 30 1 4 -8 23 -40 42 -71 l36 -56 24 22 c17 16 32 58 61 173 48 195 98 320
177 442 54 85 79 100 150 97 51 -2 61 1 82 23 22 25 26 26 82 16 32 -5 115 -9
184 -7 120 2 129 3 193 35 40 20 90 56 126 92 l60 59 -5 59 c-4 46 0 70 16
108 35 79 39 99 23 121 -7 11 -24 22 -37 26 -13 3 -52 36 -88 73 -74 79 -259
278 -286 309 -28 32 -210 228 -283 304 -36 38 -70 66 -76 64z m286 -946 c42
-67 58 -114 43 -129 -13 -13 -187 -55 -256 -63 l-59 -6 68 83 c129 156 147
177 156 177 5 0 26 -28 48 -62z"/>
<path d="M12600 17560 c-340 -107 -592 -310 -785 -630 -115 -190 -166 -383
-160 -607 6 -201 76 -351 213 -457 87 -67 126 -83 164 -68 27 10 39 7 115 -28
153 -72 283 -99 373 -79 19 4 49 11 65 14 60 12 72 15 185 49 335 99 579 249
715 441 55 77 145 260 145 295 0 67 -65 250 -207 582 l-76 178 27 27 c25 25
26 27 9 52 -69 107 -64 104 -188 136 -89 23 -181 30 -374 29 -99 -1 -167 2
-160 7 8 5 22 9 31 9 9 0 20 5 23 11 10 14 -2 56 -17 61 -7 3 -51 -7 -98 -22z
m577 -837 c12 -4 47 -33 78 -62 49 -48 58 -53 66 -38 12 21 46 40 59 32 6 -4
6 -12 0 -23 -6 -9 -32 -64 -58 -122 -42 -91 -59 -115 -123 -178 -294 -288
-600 -381 -864 -262 -60 26 -115 78 -115 106 0 23 48 114 89 167 20 27 68 72
106 101 234 174 444 279 590 293 33 3 61 7 63 8 4 3 84 -12 109 -22z"/>
<path d="M14390 17018 c-108 -92 -136 -115 -255 -214 -38 -32 -72 -61 -75 -64
-3 -3 -21 -18 -40 -32 -30 -24 -34 -31 -31 -67 2 -36 0 -41 -23 -47 -14 -3
-26 -10 -26 -14 0 -10 8 -13 110 -35 3 -1 48 -11 100 -24 52 -13 103 -25 113
-27 10 -2 26 -5 35 -8 9 -3 28 -7 42 -10 14 -2 74 -16 133 -31 60 -15 115 -24
123 -21 17 7 19 57 2 74 -15 15 -17 13 77 47 84 30 110 53 108 95 -4 57 -31
141 -62 189 -14 22 -13 25 15 48 73 62 104 92 104 101 0 19 -40 60 -75 76 -41
20 -149 44 -221 49 -49 4 -49 4 -154 -85z"/>
<path d="M4271 16819 c-28 -30 -53 -49 -60 -45 -6 4 -9 11 -6 16 7 11 -5 40
-16 40 -5 0 -17 -7 -26 -14 -10 -8 -58 -44 -108 -80 -49 -36 -109 -79 -131
-96 -63 -46 -159 -91 -208 -96 -45 -5 -116 18 -116 37 0 14 -30 11 -31 -3 -4
-33 3 -72 16 -98 8 -16 15 -32 15 -35 0 -3 -51 -30 -114 -61 -105 -51 -115
-58 -129 -95 l-16 -40 42 -18 c82 -35 118 -44 192 -45 33 -1 74 3 92 7 30 8
33 6 52 -31 34 -67 64 -170 76 -268 3 -17 22 -69 44 -116 71 -152 142 -337
155 -404 2 -10 7 -31 11 -46 9 -33 2 -35 -35 -8 -26 18 -30 19 -38 5 -7 -13
-13 -14 -38 -5 -45 18 -112 13 -206 -14 -115 -33 -161 -55 -233 -111 -135
-106 -265 -165 -349 -160 -78 5 -86 19 -81 144 4 93 9 134 29 227 2 12 16 43
29 70 35 69 146 141 221 143 22 1 44 17 93 68 37 39 61 73 58 81 -3 7 -5 19
-5 26 0 7 -21 22 -46 34 -25 13 -48 31 -51 41 -3 11 -12 22 -21 24 -10 3 -89
31 -177 61 -87 31 -160 56 -161 56 -2 0 -4 -10 -6 -22 -2 -16 -12 -24 -33 -28
-23 -4 -37 -17 -61 -58 -18 -29 -43 -61 -57 -72 -92 -72 -213 -353 -242 -560
-4 -25 -10 -61 -14 -81 -7 -32 -6 -38 13 -47 13 -6 22 -20 24 -36 3 -45 43
-227 62 -287 25 -77 38 -99 53 -93 7 2 19 -7 27 -20 7 -14 30 -37 51 -51 114
-80 283 -65 498 45 64 33 78 44 74 59 -4 14 4 24 26 35 17 9 31 14 31 10 0 -3
23 15 51 39 96 84 198 118 289 95 32 -8 51 -24 89 -72 71 -90 83 -117 76 -179
-22 -201 -179 -408 -364 -478 -31 -11 -69 -23 -86 -26 -16 -3 -46 -12 -65 -21
-37 -18 -189 -24 -265 -11 -22 4 -67 10 -100 14 -33 3 -71 7 -85 9 -14 1 -40
10 -58 20 -31 16 -52 15 -52 -3 0 -4 30 -29 68 -54 77 -54 202 -111 280 -128
50 -12 71 -29 35 -29 -13 0 -14 -3 -5 -12 13 -13 16 -14 110 -23 76 -8 164 -8
205 0 15 3 37 7 50 9 97 17 197 62 282 127 39 30 99 73 135 96 80 52 111 82
161 157 59 89 83 160 95 281 4 41 12 64 24 72 14 10 18 26 16 83 0 38 0 70 2
70 2 0 23 -9 47 -20 24 -11 82 -32 127 -45 46 -14 96 -30 112 -35 28 -9 34 -5
128 93 55 56 164 168 243 248 110 111 142 148 133 157 -7 7 -18 12 -25 12 -7
0 1 22 21 56 l34 56 -19 42 c-10 22 -19 60 -19 83 0 46 18 65 73 78 15 4 27
12 27 19 0 12 -69 146 -74 146 -2 0 -20 7 -39 15 l-35 15 -53 -68 c-63 -80
-378 -394 -392 -389 -5 1 -33 45 -63 97 -30 52 -62 101 -72 109 -16 14 -15 17
25 54 24 22 46 52 51 67 4 16 65 89 136 165 150 158 217 241 210 259 -5 14
-48 21 -194 31 l-75 6 -80 -60 c-44 -32 -93 -69 -108 -81 -20 -16 -31 -19 -40
-12 -14 12 -35 11 -55 -2 -17 -10 -22 -5 -61 66 -35 64 -37 72 -17 65 11 -4
13 4 11 36 -2 23 -6 83 -10 132 -3 50 -8 111 -11 137 l-5 47 40 12 c36 11 43
19 80 93 63 125 64 202 5 288 -46 66 -57 67 -113 7z m-108 -1623 c4 -10 1 -13
-9 -9 -15 6 -19 23 -5 23 5 0 11 -7 14 -14z m-1103 -1066 c8 -5 11 -10 5 -10
-5 0 -17 5 -25 10 -8 5 -10 10 -5 10 6 0 17 -5 25 -10z"/>
<path d="M13902 16290 c-67 -24 -170 -93 -254 -170 -37 -33 -69 -57 -72 -52
-2 4 -1 14 4 22 10 16 -5 40 -24 40 -6 0 -20 -10 -31 -22 -44 -53 -344 -387
-387 -433 -108 -113 -134 -328 -55 -446 31 -45 103 -99 134 -99 26 0 93 60
141 125 l22 30 -3 -35 c-4 -69 28 -40 175 160 276 374 455 597 577 718 37 37
70 74 73 83 3 8 0 28 -7 45 -25 54 -28 56 -67 39 -32 -13 -41 -13 -72 0 -47
20 -90 18 -154 -5z"/>
<path d="M15171 16068 c-15 -24 -53 -92 -86 -153 -20 -38 -38 -48 -386 -222
l-364 -183 -6 28 c-7 35 14 89 53 129 29 30 31 53 4 53 -7 0 -21 -9 -31 -20
-16 -17 -20 -18 -27 -6 -16 29 -86 -6 -236 -117 -120 -90 -268 -220 -293 -257
-13 -19 -28 -40 -34 -46 -5 -6 -30 -40 -55 -77 -34 -49 -58 -73 -97 -94 -29
-15 -53 -32 -53 -36 0 -5 12 -39 27 -75 31 -80 94 -176 166 -255 l53 -58 84
32 c47 18 98 44 114 57 23 18 38 23 62 19 28 -5 31 -3 27 14 -11 40 56 149
146 239 47 48 97 95 111 106 14 10 48 51 77 89 28 39 63 81 77 94 18 17 26 35
26 58 0 37 20 44 54 18 32 -24 53 -17 83 26 15 23 48 53 72 66 55 31 142 65
148 59 3 -2 -36 -82 -85 -178 -323 -624 -466 -939 -479 -1060 -3 -27 -1 -48 4
-48 5 0 29 27 53 60 35 48 49 60 71 60 22 0 32 8 51 41 22 40 23 40 39 20 24
-30 49 -20 112 46 38 40 65 59 83 61 26 2 26 1 11 -16 -20 -22 -22 -39 -5 -44
7 -3 107 59 223 136 116 78 220 146 230 153 11 7 85 54 165 104 213 136 355
218 525 304 l100 50 1 43 c1 45 0 46 -71 44 -16 -1 -50 8 -73 20 -88 42 -228
13 -424 -87 -48 -24 -90 -40 -93 -36 -2 5 2 14 10 21 8 7 15 26 15 42 0 16 31
93 69 171 91 187 131 285 131 318 0 15 -21 34 -58 53 -18 9 -32 22 -32 30 0 7
-12 23 -26 37 -41 39 -83 108 -78 132 2 12 -4 28 -16 39 -19 17 -20 17 -39 -3
l-20 -21 -27 21 c-34 27 -66 27 -83 -1z"/>
<path d="M8927 16004 c-1 -1 -54 -5 -117 -9 -166 -9 -258 -17 -460 -40 -30 -4
-66 -8 -80 -10 -14 -2 -45 -7 -70 -10 -363 -50 -822 -161 -1215 -296 -858
-293 -1602 -727 -2320 -1353 -76 -66 -462 -450 -535 -531 -276 -309 -566 -697
-749 -1000 -23 -38 -46 -77 -51 -85 -102 -161 -332 -616 -419 -830 -29 -69
-56 -134 -61 -145 -39 -86 -176 -494 -224 -665 -28 -104 -55 -205 -60 -230 -2
-14 -14 -65 -26 -115 -12 -49 -23 -100 -25 -112 -2 -12 -6 -34 -9 -50 -8 -35
-13 -61 -20 -104 -3 -19 -8 -45 -11 -59 -12 -61 -15 -78 -20 -120 -3 -25 -10
-70 -15 -100 -5 -30 -12 -84 -16 -120 -3 -36 -8 -73 -10 -83 -1 -9 -6 -54 -9
-100 -3 -45 -8 -95 -10 -112 -18 -140 -24 -681 -11 -910 8 -135 13 -193 31
-385 8 -82 50 -377 65 -455 25 -128 92 -436 106 -485 8 -30 22 -81 30 -113 41
-169 210 -660 277 -809 9 -18 39 -87 68 -153 251 -578 634 -1182 1065 -1680
269 -311 470 -508 834 -819 131 -111 352 -275 560 -413 604 -403 1264 -704
1965 -897 72 -20 140 -38 150 -40 11 -2 58 -13 105 -25 175 -42 470 -97 625
-116 28 -3 64 -8 80 -10 45 -7 122 -15 195 -21 36 -3 81 -8 100 -10 97 -11
353 -19 585 -18 305 0 507 11 745 40 19 2 53 6 75 8 22 3 72 9 110 15 39 6 88
13 110 16 22 3 51 8 65 11 14 3 39 8 55 10 17 2 53 8 80 14 28 5 61 12 75 14
14 2 59 12 100 21 41 10 91 21 110 25 272 59 694 192 996 315 451 183 871 406
1264 673 137 93 381 271 450 329 14 11 70 58 125 104 55 46 120 102 145 124
163 150 209 193 329 315 630 638 1128 1396 1467 2236 150 370 292 844 359
1194 17 90 28 148 30 165 2 11 8 47 14 80 5 33 13 80 16 105 3 25 8 52 10 60
2 8 7 44 10 80 4 36 9 74 11 85 2 11 7 58 10 105 3 47 7 96 9 108 26 160 26
914 0 1138 -2 21 -7 68 -10 104 -3 36 -10 103 -16 150 -6 47 -12 99 -14 115
-2 17 -5 44 -8 60 -3 17 -8 50 -12 75 -28 194 -124 625 -179 810 -241 799
-552 1443 -1004 2075 -83 115 -261 348 -299 390 -10 11 -31 36 -47 55 -214
261 -542 585 -878 867 -274 229 -677 503 -1023 696 -562 312 -1225 564 -1825
692 -41 9 -84 18 -95 21 -50 10 -183 35 -215 40 -19 2 -46 7 -60 10 -13 3 -40
8 -60 10 -19 2 -46 7 -60 9 -14 3 -50 7 -80 11 -30 3 -62 8 -70 9 -29 5 -213
24 -298 30 -31 3 -93 7 -137 11 -77 6 -672 13 -678 8z"/>
<path d="M15960 14949 c-240 -126 -356 -208 -798 -569 -83 -69 -176 -138 -206
-155 -65 -37 -87 -54 -84 -69 1 -6 -4 -44 -11 -84 -10 -57 -18 -76 -36 -88
-22 -14 -28 -12 -104 25 -44 23 -86 38 -94 35 -26 -10 -14 -34 34 -66 27 -18
49 -36 49 -40 0 -5 -19 -8 -43 -8 -24 0 -46 -3 -50 -6 -3 -3 31 -35 76 -71
115 -92 136 -113 156 -151 l17 -33 27 21 c27 22 30 22 97 4 118 -31 296 -71
395 -90 11 -2 31 -6 45 -9 14 -2 45 -7 70 -10 25 -4 59 -8 75 -11 17 -3 78 -7
137 -8 l107 -4 77 -71 c119 -111 176 -132 234 -89 37 27 38 42 4 71 -14 13
-27 37 -31 57 -7 47 -18 65 -63 107 -35 31 -38 37 -25 50 29 29 16 55 -37 72
-72 24 -175 135 -244 264 -26 48 -37 61 -57 61 -22 1 -26 -3 -31 -39 -8 -58 1
-113 29 -170 13 -27 22 -51 20 -54 -18 -17 -278 42 -320 73 -40 30 67 110 320
235 159 79 175 85 283 121 112 37 160 45 272 44 137 -1 217 -50 268 -164 34
-78 40 -150 15 -192 l-20 -34 24 -34 c16 -24 38 -40 70 -52 43 -15 70 -38 44
-38 -14 0 -14 -27 -1 -35 23 -15 57 30 71 93 9 44 22 73 45 99 47 53 66 122
63 238 -1 54 -5 114 -10 134 -4 20 -10 54 -13 75 -8 50 -92 168 -156 218 -82
64 -271 137 -437 169 -35 6 -67 17 -73 24 -25 30 -19 56 20 99 47 51 42 76
-10 57 -42 -14 -40 -15 -40 17 0 55 -9 54 -150 -19z"/>
<path d="M1477 14957 c-39 -36 -69 -123 -85 -238 l-8 -66 209 -262 209 -261
43 0 c38 0 44 -3 47 -22 2 -13 7 -22 13 -21 5 1 42 127 81 280 39 153 76 294
81 314 7 22 7 42 1 52 -11 21 -51 22 -69 1 -11 -13 -16 -6 -36 53 -40 113 -43
120 -66 130 -40 17 -138 -2 -213 -42 l-42 -22 -53 68 c-30 38 -59 69 -66 69
-6 0 -27 -15 -46 -33z"/>
<path d="M2218 14323 c-40 -16 -45 -27 -27 -67 9 -19 9 -32 0 -53 -20 -50 -20
-105 1 -168 22 -67 104 -194 173 -269 25 -28 45 -53 45 -58 0 -12 -14 -10 -29
5 -10 10 -15 8 -27 -8 -14 -19 -10 -24 58 -89 178 -170 208 -199 204 -203 -2
-2 -24 1 -47 7 -24 7 -53 14 -64 16 -11 1 -49 8 -85 14 -36 7 -75 14 -87 16
-13 2 -33 6 -45 8 -13 2 -50 9 -83 15 -33 6 -73 13 -90 15 -16 3 -61 10 -100
16 -38 7 -79 13 -90 15 -36 5 -109 16 -137 21 -39 6 -36 -17 4 -51 l33 -28
-80 8 c-44 4 -96 9 -115 11 -78 8 -169 13 -246 14 -74 0 -84 2 -118 29 -36 29
-37 29 -76 14 -43 -17 -44 -22 -22 -98 17 -56 -16 -92 -65 -74 -19 7 -25 4
-38 -21 -17 -33 -6 -43 32 -29 24 9 53 2 53 -12 0 -5 -13 -6 -30 -3 -25 5 -31
2 -41 -20 -16 -33 -12 -36 84 -70 42 -16 77 -31 77 -35 0 -3 17 -24 38 -46
123 -132 172 -189 172 -202 0 -11 -4 -11 -21 -3 -12 7 -32 9 -47 4 -15 -4 -29
-7 -32 -6 -3 0 -25 3 -50 7 -25 3 -70 10 -100 15 -162 26 -321 36 -349 21 -12
-7 -23 -26 -27 -49 -3 -20 -14 -46 -24 -57 -10 -11 -25 -35 -34 -52 -24 -48
-75 -103 -95 -103 -10 0 -23 -11 -29 -24 -9 -20 -7 -25 14 -37 14 -7 23 -18
20 -25 -3 -7 -8 -28 -11 -47 -6 -31 -4 -35 22 -45 15 -6 75 -21 133 -33 l105
-21 166 -172 c352 -362 389 -401 389 -409 0 -14 -55 -29 -91 -23 -19 3 -49 13
-67 21 -17 9 -36 14 -42 10 -19 -12 -10 -33 22 -46 17 -7 26 -15 20 -17 -59
-19 76 -139 342 -304 123 -76 192 -106 347 -148 20 -6 59 -30 85 -55 l49 -44
35 26 c63 46 120 107 169 178 48 69 91 146 91 162 0 5 -20 28 -45 53 -24 25
-44 50 -45 57 0 7 -20 26 -45 43 -38 26 -49 42 -47 70 0 3 -30 5 -66 5 -102 1
-199 39 -362 143 -14 9 -61 28 -105 42 -44 15 -95 35 -114 44 -26 14 -39 16
-57 7 -30 -13 -58 11 -48 43 3 11 6 23 6 26 1 35 -5 40 -44 46 -36 6 -55 19
-115 79 -75 74 -91 105 -50 99 12 -1 141 -23 287 -48 146 -24 285 -47 310 -51
25 -3 56 -8 70 -10 14 -2 45 -7 70 -10 25 -3 52 -8 60 -10 8 -2 49 -7 90 -10
41 -4 77 -8 80 -10 7 -4 217 -18 275 -18 70 0 125 12 125 26 0 7 -30 21 -67
32 -50 15 -71 27 -80 44 -13 28 -28 38 -67 45 -39 7 -41 11 -17 35 12 12 16
21 11 21 -5 0 -10 6 -10 13 0 7 -37 31 -82 53 -82 39 -117 77 -63 67 48 -10
30 30 -37 83 -378 293 -604 492 -516 454 13 -5 127 -39 253 -75 127 -36 244
-69 260 -74 97 -32 405 -102 452 -104 64 -2 80 14 33 33 -16 7 -30 16 -30 20
0 13 32 21 44 11 6 -5 38 -18 71 -30 117 -42 188 -31 197 31 9 56 1 124 -20
171 l-20 45 71 -3 c107 -6 168 18 234 91 72 78 66 107 -37 193 -55 46 -72 75
-29 48 16 -10 21 -9 29 3 5 8 10 18 10 21 0 5 -184 150 -309 244 -14 10 -82
64 -150 120 -68 55 -138 111 -155 125 -88 69 -171 144 -259 233 -54 54 -105
100 -115 102 -9 1 -34 -4 -54 -12z"/>
<path d="M16024 13318 c-70 -50 -151 -131 -211 -212 -32 -43 -43 -53 -43 -37
0 90 -117 -148 -146 -296 -23 -122 -19 -214 17 -333 17 -56 32 -111 34 -122 2
-11 6 -27 9 -36 3 -9 8 -34 10 -55 7 -54 86 -177 157 -241 33 -30 94 -70 135
-90 52 -26 74 -42 74 -55 0 -13 16 -25 54 -41 81 -32 122 -41 213 -45 135 -6
250 34 390 138 72 53 81 63 72 80 -9 15 -7 22 9 33 39 27 58 109 67 294 2 45
-5 78 -44 218 -50 179 -41 328 22 376 l26 19 83 -33 c96 -37 208 -100 256
-144 37 -34 77 -94 68 -103 -3 -3 -1 -13 4 -22 14 -28 20 -103 10 -147 -9 -37
-6 -49 26 -115 20 -41 41 -77 48 -81 24 -16 59 -7 84 22 15 17 36 30 48 30 21
0 82 62 190 195 65 79 79 105 61 105 -20 0 -26 19 -16 47 7 18 0 32 -36 75
-25 28 -45 59 -45 68 0 53 -157 232 -290 331 -74 55 -240 159 -254 159 -4 0
-14 -6 -21 -14 -11 -11 -24 -12 -52 -5 -21 5 -56 11 -77 14 -21 3 -43 8 -47
11 -5 2 -65 7 -134 11 -111 5 -125 4 -125 -10 0 -10 -14 -20 -40 -27 -63 -17
-115 -65 -151 -139 -23 -49 -26 -59 -38 -144 -14 -100 4 -314 27 -310 15 4 32
-30 30 -59 -1 -13 8 -52 21 -87 33 -97 37 -165 12 -232 -12 -31 -32 -65 -44
-77 -28 -26 -158 -72 -204 -72 -53 0 -132 49 -215 133 -84 84 -144 190 -168
295 -17 72 -6 290 17 362 27 84 160 340 188 362 27 21 34 48 12 48 -8 0 -40
-19 -73 -42z m-31 -98 c-9 -11 -19 -17 -21 -15 -6 6 18 35 29 35 5 0 1 -9 -8
-20z"/>
<path d="M365 11713 c-38 -139 -80 -300 -91 -352 -3 -14 -7 -28 -9 -31 -2 -4
-7 -22 -10 -41 -3 -19 -10 -50 -15 -69 -16 -62 -69 -323 -75 -375 -4 -27 -9
-53 -11 -56 -2 -4 -8 -38 -14 -75 -5 -38 -12 -78 -14 -90 -2 -12 -7 -45 -11
-75 -4 -30 -8 -56 -10 -59 -1 -3 -6 -34 -10 -70 -8 -79 -12 -109 -19 -157 -3
-21 -8 -67 -11 -103 -3 -36 -8 -81 -10 -100 -4 -32 -12 -129 -20 -255 -31
-448 -23 -1085 20 -1505 3 -25 7 -70 10 -100 3 -30 8 -66 10 -80 2 -14 7 -54
10 -90 4 -36 8 -72 10 -80 2 -9 7 -43 11 -75 4 -33 8 -62 9 -65 1 -3 5 -30 9
-60 5 -30 10 -64 12 -75 2 -11 9 -47 14 -80 18 -111 13 -82 101 -500 16 -77
90 -361 125 -480 66 -224 210 -655 244 -730 5 -11 19 -45 31 -75 11 -30 27
-68 34 -85 7 -16 38 -88 68 -160 140 -331 330 -709 514 -1020 98 -165 224
-365 255 -406 15 -20 28 -40 28 -43 0 -17 258 -373 448 -616 55 -70 237 -287
311 -370 142 -159 176 -195 406 -425 240 -240 319 -314 520 -485 128 -110 134
-114 210 -175 28 -22 52 -42 55 -45 3 -4 61 -49 130 -100 69 -52 129 -99 135
-103 215 -167 688 -468 1027 -655 201 -111 593 -302 751 -368 34 -14 76 -32
93 -39 165 -76 657 -252 904 -325 58 -17 134 -39 170 -50 60 -17 134 -37 170
-46 38 -8 149 -36 185 -45 22 -6 51 -13 65 -15 14 -3 33 -7 42 -10 9 -3 25 -7
35 -9 59 -11 231 -46 248 -49 63 -12 195 -36 225 -40 19 -3 44 -7 55 -10 11
-2 43 -7 70 -10 28 -4 61 -9 75 -11 167 -26 389 -50 645 -70 325 -25 1043 -26
1330 0 22 2 80 6 128 9 49 4 103 8 120 11 18 2 59 7 92 10 33 3 74 8 90 10 17
2 53 7 80 10 28 3 64 8 80 10 17 3 47 7 68 10 89 12 115 16 167 25 30 5 71 12
90 15 19 3 60 10 90 16 30 6 64 12 75 14 65 10 300 61 380 81 33 9 71 18 85
20 14 3 50 12 80 20 30 9 64 18 74 20 51 10 361 102 526 156 308 101 670 242
899 349 57 27 105 49 107 49 6 0 312 153 397 199 42 22 112 60 155 83 69 37
98 53 167 95 11 6 67 40 125 74 228 135 596 385 815 554 77 58 281 221 293
232 7 7 34 29 60 50 25 21 56 47 68 58 12 11 48 43 80 70 216 185 572 537 784
775 36 40 83 93 106 119 44 49 136 159 194 231 19 24 47 58 61 75 14 16 54 68
90 115 35 47 67 87 70 90 36 33 509 734 509 755 0 2 23 40 50 84 28 44 50 83
50 87 0 3 8 18 18 32 11 15 36 59 57 97 21 39 50 93 65 120 37 66 230 452 230
459 0 2 18 44 41 93 23 48 69 156 103 238 80 192 78 188 82 200 2 6 19 53 40
105 111 288 290 875 335 1099 5 23 14 62 20 84 6 23 13 51 15 61 2 11 17 88
34 170 16 83 32 167 35 186 3 19 12 71 20 115 8 44 17 100 20 125 3 25 8 56
10 70 2 14 6 45 10 70 3 25 8 56 10 70 3 14 7 52 10 85 3 33 7 74 9 90 6 40
14 124 21 210 3 39 8 90 10 115 27 318 27 1112 0 1365 -2 22 -7 69 -10 105
-10 123 -16 185 -20 220 -2 19 -7 60 -10 90 -4 30 -8 66 -10 80 -2 14 -9 61
-15 105 -6 44 -13 92 -15 107 -3 16 -7 40 -9 55 -2 16 -6 44 -10 63 -12 71
-17 96 -22 135 -25 175 -206 930 -234 976 -6 8 -31 4 -96 -15 -49 -15 -123
-36 -164 -48 -41 -11 -79 -24 -83 -28 -7 -6 8 -70 68 -275 8 -27 16 -61 19
-75 2 -14 11 -52 20 -85 39 -154 86 -374 112 -530 4 -22 8 -49 10 -60 24 -131
38 -223 49 -320 3 -27 8 -61 10 -75 2 -14 7 -50 10 -80 3 -30 8 -71 10 -90 5
-34 7 -66 21 -235 3 -44 8 -96 9 -115 34 -347 18 -1145 -30 -1520 -3 -19 -7
-62 -10 -95 -3 -33 -8 -71 -10 -85 -2 -14 -7 -45 -10 -70 -4 -25 -8 -56 -10
-70 -2 -14 -7 -45 -10 -70 -16 -122 -65 -385 -95 -520 -12 -52 -24 -106 -26
-120 -32 -167 -157 -607 -256 -895 -184 -539 -488 -1194 -758 -1635 -5 -8 -21
-35 -36 -60 -48 -82 -138 -225 -144 -230 -3 -3 -26 -36 -50 -75 -61 -96 -275
-396 -357 -501 -38 -47 -77 -98 -88 -113 -11 -15 -40 -52 -65 -82 -25 -29 -52
-63 -61 -74 -68 -83 -168 -197 -298 -340 -123 -135 -508 -511 -661 -646 -239
-209 -395 -332 -730 -579 -159 -118 -535 -356 -760 -482 -358 -202 -677 -356
-1020 -494 -47 -19 -94 -39 -105 -44 -67 -30 -463 -168 -630 -219 -227 -68
-530 -149 -627 -166 -16 -3 -58 -12 -95 -21 -80 -19 -98 -23 -138 -29 -16 -3
-75 -14 -130 -25 -55 -11 -131 -24 -170 -30 -38 -5 -79 -12 -90 -14 -11 -2
-42 -7 -70 -10 -27 -3 -81 -11 -120 -16 -38 -5 -92 -12 -120 -15 -27 -4 -61
-8 -75 -10 -14 -2 -64 -6 -112 -10 -49 -3 -96 -8 -107 -10 -10 -2 -79 -6 -153
-10 -73 -4 -151 -8 -173 -10 -50 -5 -731 -5 -805 -1 -322 21 -495 35 -615 51
-35 5 -114 15 -165 21 -19 2 -48 6 -65 9 -16 2 -48 7 -70 10 -143 21 -470 82
-585 110 -39 9 -107 24 -130 29 -14 2 -53 12 -87 21 -35 9 -72 18 -83 20 -12
2 -35 9 -53 15 -41 13 -271 79 -317 90 -77 19 -466 156 -645 227 -406 161
-762 332 -1165 560 -125 71 -368 223 -515 322 -187 126 -496 350 -525 381 -3
3 -30 24 -60 47 -30 23 -67 53 -81 65 -15 13 -44 37 -65 53 -20 17 -44 36 -51
43 -7 8 -44 39 -81 71 -37 31 -90 76 -117 101 -27 25 -76 70 -110 100 -92 84
-452 447 -525 530 -36 41 -72 81 -80 90 -36 37 -195 225 -286 340 -152 190
-281 364 -435 590 -95 139 -293 459 -379 615 -18 33 -42 76 -53 95 -111 196
-303 603 -412 870 -136 333 -292 792 -351 1030 -2 8 -17 67 -34 130 -28 110
-93 396 -105 470 -3 19 -8 42 -10 50 -5 18 -9 38 -35 190 -10 63 -22 138 -25
165 -4 28 -8 57 -10 65 -2 8 -7 42 -10 75 -4 33 -8 71 -11 85 -2 14 -6 50 -9
80 -3 30 -8 73 -10 95 -3 22 -7 69 -10 105 -3 36 -7 83 -10 105 -4 37 -9 129
-20 355 -6 122 -6 547 0 670 9 175 15 284 20 345 3 33 7 89 10 125 8 100 28
276 41 360 3 19 7 51 9 70 31 253 154 856 216 1059 10 34 21 73 23 85 2 11 13
49 24 83 l19 61 -81 25 c-44 14 -120 37 -167 51 -47 14 -90 26 -96 26 -6 0
-23 -44 -38 -97z"/>
<path d="M17385 10852 c-43 -7 -81 -14 -82 -16 -3 -2 9 -78 37 -235 12 -66 12
-82 3 -79 -7 2 -38 -2 -133 -18 -8 -1 -40 -7 -70 -13 -121 -23 -119 -23 -125
1 -5 25 -10 50 -26 148 -5 36 -13 68 -17 71 -4 4 -41 1 -82 -7 -41 -7 -76 -13
-78 -14 -2 0 0 -17 3 -37 4 -21 9 -51 11 -68 9 -50 12 -68 19 -107 4 -21 3
-38 -1 -38 -5 0 -61 -9 -124 -21 -163 -29 -190 -31 -190 -20 0 18 -50 294 -53
298 -4 3 -158 -24 -163 -30 -2 -2 1 -19 6 -38 5 -19 11 -50 13 -69 3 -19 12
-78 22 -130 9 -52 18 -102 19 -110 14 -102 21 -132 31 -137 8 -2 51 2 97 11
46 8 101 17 123 21 43 6 255 42 295 50 60 12 77 15 113 20 86 12 113 16 127
20 8 2 29 6 45 9 17 3 98 17 181 31 84 14 155 25 158 25 7 0 6 11 -8 90 -8 44
-13 78 -26 159 -6 36 -12 67 -14 70 -2 3 -7 29 -10 56 -4 28 -10 66 -14 85
l-7 36 -80 -14z"/>
<path d="M919 10828 c-4 -19 -29 -170 -29 -179 0 -4 24 -10 53 -14 28 -4 61
-9 72 -11 11 -2 34 -6 50 -8 116 -16 174 -32 212 -58 23 -16 44 -32 47 -37 5
-7 -118 -36 -244 -57 -14 -3 -34 -8 -45 -11 -11 -3 -29 -8 -40 -9 -11 -2 -27
-5 -35 -7 -8 -2 -36 -7 -62 -11 -51 -9 -46 1 -64 -120 -3 -21 -7 -47 -9 -58
-3 -14 0 -18 13 -14 17 4 108 24 230 51 37 8 110 24 162 35 52 12 106 24 120
26 14 2 52 10 85 18 l60 14 70 -47 c38 -27 147 -102 240 -169 l170 -120 12 66
c20 116 21 114 -54 164 -216 145 -340 232 -358 250 -11 12 -15 18 -10 15 6 -3
26 -8 45 -11 95 -15 114 -18 129 -21 9 -1 52 -8 96 -15 44 -7 87 -14 97 -15
63 -13 106 -16 111 -8 3 4 8 31 11 58 4 28 9 64 12 82 7 35 8 35 -86 48 -64
10 -88 13 -255 41 -82 14 -163 27 -180 30 -16 2 -55 9 -85 14 -30 5 -73 12
-95 15 -22 3 -65 10 -95 15 -30 5 -73 12 -95 15 -22 4 -47 8 -55 10 -8 2 -35
7 -60 10 -54 7 -98 15 -122 21 -10 3 -18 4 -19 2z"/>
<path d="M17308 10055 c-2 -2 -37 -5 -78 -9 -41 -3 -76 -5 -77 -6 -3 0 8 -154
13 -168 3 -10 28 -12 110 -8 144 7 174 -8 174 -88 0 -46 -32 -83 -78 -90 -43
-6 -129 -14 -257 -21 -49 -4 -112 -8 -140 -10 -44 -3 -251 -17 -265 -17 -69
-2 -110 31 -110 87 0 78 40 100 183 104 l49 1 -7 87 c-4 48 -9 91 -12 96 -4 7
-53 4 -158 -9 -90 -12 -170 -69 -204 -145 -24 -53 -27 -175 -6 -238 22 -66 75
-125 133 -148 62 -24 205 -23 487 2 22 2 85 6 140 10 200 12 235 18 295 53 83
48 120 116 121 223 2 171 -92 279 -253 292 -32 2 -59 3 -60 2z"/>
<path d="M799 9958 c0 -2 -2 -23 -5 -48 -2 -25 -5 -66 -8 -92 -4 -46 -4 -48
22 -49 15 -1 38 -2 52 -4 14 -1 68 -5 120 -10 52 -4 112 -8 132 -10 21 -2 75
-7 120 -10 79 -5 107 -7 238 -20 30 -2 93 -7 140 -10 47 -3 101 -8 120 -10 19
-2 76 -7 127 -10 l91 -7 7 87 c4 47 5 89 1 92 -8 9 -17 10 -128 17 -51 4 -115
8 -143 11 -114 10 -194 16 -255 20 -36 3 -85 7 -110 9 -25 3 -90 8 -145 12
-55 3 -107 8 -115 9 -8 2 -62 6 -120 10 -58 3 -113 9 -122 11 -10 3 -18 4 -19
2z"/>
<path d="M975 9472 c-93 -16 -165 -66 -201 -140 -27 -54 -27 -212 0 -265 55
-112 137 -149 332 -151 l92 -1 0 93 -1 92 -46 1 c-51 1 -149 5 -169 8 -7 0
-24 12 -37 26 -36 35 -34 88 5 126 l30 30 360 -5 c386 -6 404 -9 427 -58 6
-13 9 -36 8 -50 -8 -68 -44 -86 -167 -84 l-75 1 -1 -92 -1 -93 62 -1 c153 -3
216 14 276 73 113 113 99 354 -26 433 -70 44 -126 51 -398 55 -137 2 -295 4
-350 4 -55 1 -109 0 -120 -2z"/>
<path d="M17599 9236 c-2 -2 -31 -7 -64 -11 -33 -3 -73 -8 -90 -10 -16 -3 -52
-7 -80 -10 -27 -3 -63 -7 -80 -10 -16 -2 -50 -7 -75 -9 -25 -3 -85 -10 -135
-17 -49 -6 -106 -13 -125 -15 -310 -36 -355 -42 -415 -51 -22 -3 -48 -5 -57
-5 -15 1 -18 -8 -19 -51 -1 -29 -2 -92 -2 -142 l-2 -89 35 -8 c19 -4 58 -10
85 -13 28 -4 53 -9 56 -11 4 -2 24 -6 45 -9 22 -3 62 -10 89 -16 89 -17 100
-19 130 -24 61 -10 82 -14 160 -29 44 -8 94 -18 110 -21 17 -2 41 -7 55 -10
14 -3 63 -12 110 -20 47 -9 110 -20 140 -26 30 -5 76 -13 101 -18 l47 -8 1 83
1 83 -37 10 c-21 5 -58 12 -83 16 -87 13 -81 4 -77 126 2 60 6 111 8 113 2 2
33 7 69 10 107 11 120 13 125 18 7 7 12 157 6 165 -7 9 -26 14 -32 9z m-345
-258 c-1 -24 -2 -65 -3 -91 -1 -41 -4 -48 -18 -43 -10 3 -36 7 -58 11 -44 6
-77 12 -115 20 -14 3 -41 8 -60 11 -19 3 -53 9 -75 14 -22 5 -60 12 -85 15
-25 3 -70 12 -100 19 -44 11 -49 14 -25 16 17 1 37 3 46 5 14 2 45 6 169 21
75 8 136 16 160 19 14 2 54 7 90 10 36 4 67 9 69 11 2 2 5 4 6 4 0 0 0 -19 -1
-42z"/>
<path d="M1880 8720 c-41 -7 -112 -14 -240 -25 -25 -2 -70 -7 -100 -11 -30 -3
-73 -8 -95 -9 -52 -5 -173 -16 -205 -20 -14 -2 -54 -6 -90 -9 -36 -4 -81 -9
-100 -11 -19 -2 -68 -7 -107 -11 -40 -3 -81 -7 -90 -9 -10 -2 -31 -4 -46 -4
l-28 -1 7 -77 c9 -101 9 -103 17 -105 4 0 78 5 165 13 188 16 195 16 250 -8
l43 -18 -220 -110 -220 -110 6 -75 c7 -92 8 -98 14 -104 3 -3 79 33 169 79 91
47 229 117 306 156 l142 72 271 -100 272 -101 -6 77 c-4 42 -8 83 -11 92 -3
10 -44 30 -107 52 -56 19 -142 50 -192 68 -49 17 -119 42 -155 54 l-65 22 40
6 c22 4 74 9 115 13 41 3 89 8 105 10 17 2 55 6 85 9 30 3 77 8 103 11 l48 6
-6 57 c-9 88 -15 120 -23 124 -4 2 -27 0 -52 -3z"/>
<path d="M16524 8428 c-20 -10 -45 -25 -54 -33 -33 -30 -60 -104 -76 -206 -8
-57 -17 -115 -19 -129 -2 -14 -7 -48 -9 -76 l-5 -50 41 -3 c23 -1 44 -4 47 -5
3 -2 35 -7 71 -11 36 -4 74 -9 85 -11 11 -2 56 -8 100 -14 44 -6 91 -12 105
-14 14 -2 50 -7 80 -11 30 -4 62 -8 71 -10 8 -1 42 -6 75 -9 32 -4 66 -9 74
-11 8 -2 40 -6 70 -10 30 -3 66 -7 80 -9 14 -3 48 -7 75 -11 28 -3 64 -8 80
-11 89 -14 105 -13 106 4 0 9 2 24 4 32 1 8 6 42 10 76 l7 61 -104 12 c-57 7
-116 15 -133 17 -16 2 -39 5 -50 8 -11 2 -49 7 -85 12 -36 4 -68 9 -72 10 -5
1 -12 2 -17 3 -13 1 -3 67 16 108 21 45 58 57 150 49 42 -4 79 -8 82 -10 20
-12 227 -24 236 -14 6 5 25 129 25 158 0 24 -2 25 -68 25 -64 1 -142 9 -242
24 -75 12 -200 -1 -200 -20 0 -5 -6 -9 -14 -9 -8 0 -23 -12 -34 -27 l-20 -27
-16 32 c-34 65 -110 104 -243 122 -108 15 -183 11 -229 -12z m286 -184 c81
-14 110 -50 103 -129 -6 -60 -9 -66 -40 -61 -43 7 -90 14 -188 27 -49 6 -96
12 -103 13 -25 4 -31 21 -21 70 5 28 19 61 32 74 21 23 26 24 102 18 44 -3 96
-9 115 -12z"/>
<path d="M16450 7698 c-52 -12 -112 -47 -139 -80 -57 -70 -89 -211 -66 -293
15 -57 62 -111 125 -144 36 -19 195 -64 310 -87 13 -3 108 -26 210 -51 211
-52 282 -61 345 -43 118 33 197 173 181 321 -12 117 -84 188 -226 225 -60 15
-70 17 -125 29 l-30 6 -21 -86 c-22 -96 -22 -97 41 -108 164 -29 216 -71 185
-152 -27 -71 -55 -72 -302 -12 -103 26 -198 49 -210 51 -53 12 -186 44 -227
55 -24 7 -55 24 -68 37 -47 48 -14 141 53 148 24 3 110 -13 165 -30 13 -4 21
12 38 81 12 48 19 90 17 94 -13 20 -208 50 -256 39z"/>
<path d="M2055 7583 c-11 -3 -105 -27 -210 -55 -104 -28 -197 -52 -205 -53 -8
-2 -59 -15 -113 -30 -54 -15 -106 -28 -115 -30 -42 -10 -436 -115 -438 -118
-8 -7 74 -304 97 -352 61 -129 172 -165 359 -115 147 40 229 96 245 169 l6 30
41 -27 c54 -36 146 -39 251 -10 90 26 115 38 158 81 68 68 71 131 14 360 -41
163 -40 162 -90 150z m-57 -258 c17 -63 15 -88 -7 -114 -24 -27 -129 -62 -190
-64 -36 0 -48 4 -65 26 -19 24 -52 115 -44 122 4 4 270 73 283 74 6 1 16 -19
23 -44z m-464 -102 c3 -16 9 -51 12 -79 6 -47 4 -53 -22 -77 -26 -24 -137 -62
-218 -73 -50 -7 -79 15 -98 74 -32 101 -43 90 137 138 88 23 165 42 171 43 7
1 15 -11 18 -26z"/>
<path d="M16117 6959 c-16 -40 -25 -75 -20 -79 4 -4 35 -16 68 -28 33 -11 157
-55 275 -97 118 -42 241 -86 273 -97 32 -12 60 -25 64 -31 3 -6 2 -7 -3 -4 -5
3 -43 8 -84 11 -41 4 -100 8 -130 11 -30 2 -89 7 -130 10 -41 3 -91 8 -110 10
-19 2 -78 7 -130 10 -52 3 -111 8 -132 11 -40 5 -33 17 -91 -148 -22 -60 -22
-68 -8 -73 15 -7 98 -36 446 -159 88 -31 167 -60 175 -63 8 -3 20 -7 25 -9 6
-1 104 -36 220 -78 115 -42 213 -76 216 -76 7 0 59 148 59 167 0 6 -24 18 -52
28 -29 9 -141 48 -248 87 -193 68 -243 87 -350 127 l-55 21 60 -5 c81 -7 211
-17 260 -20 45 -3 176 -14 250 -20 28 -3 86 -8 131 -11 l80 -6 36 96 c20 53
33 98 29 100 -3 2 -110 41 -236 86 -127 45 -259 93 -295 106 -161 59 -546 194
-555 194 -6 0 -23 -32 -38 -71z"/>
<path d="M2115 6799 c-50 -9 -609 -219 -692 -260 -73 -35 -126 -92 -143 -154
-34 -122 36 -292 144 -347 46 -24 128 -31 184 -16 35 9 433 155 497 182 17 7
59 24 95 36 206 74 277 203 210 381 -49 134 -164 203 -295 178z m110 -202 c17
-14 28 -36 32 -62 4 -35 1 -45 -20 -65 -21 -20 -220 -107 -287 -125 -8 -2 -98
-36 -200 -75 -206 -79 -248 -85 -281 -40 -40 54 -25 115 33 143 24 11 495 191
628 240 33 12 70 6 95 -16z"/>
<path d="M2352 5980 c-186 -190 -207 -209 -245 -215 -23 -4 -49 -9 -57 -10 -8
-1 -40 -6 -70 -10 -30 -3 -66 -8 -80 -10 -80 -11 -188 -27 -210 -30 -14 -2
-45 -6 -70 -10 -63 -8 -100 -16 -100 -21 0 -2 18 -39 40 -82 l39 -78 73 12
c40 7 100 16 133 19 33 4 62 8 65 10 3 2 30 6 60 9 30 4 69 9 85 12 26 5 6
-18 -129 -154 l-159 -160 36 -70 c19 -39 38 -76 42 -82 4 -7 90 73 221 208
l214 220 83 11 c45 7 93 14 107 16 14 2 45 7 70 10 75 10 112 16 175 25 33 5
83 12 110 16 28 3 54 9 58 13 8 8 -63 152 -73 146 -3 -1 -27 -5 -55 -9 -27 -3
-108 -15 -180 -26 -71 -12 -148 -23 -170 -26 l-40 -5 162 162 162 161 -40 79
c-21 43 -43 79 -47 79 -4 -1 -99 -95 -210 -210z"/>
<path d="M15739 6025 c-33 -70 -59 -128 -57 -129 8 -7 335 -231 418 -287 52
-35 97 -66 100 -69 3 -3 48 -34 100 -70 52 -35 153 -104 224 -152 71 -48 130
-87 132 -85 1 1 18 35 37 75 l35 73 -72 50 c-39 28 -77 54 -84 58 -9 5 -1 32
34 109 54 115 38 109 169 66 41 -14 74 -19 79 -14 17 17 74 145 67 152 -3 3
-44 18 -91 31 -47 14 -123 37 -170 52 -47 15 -89 28 -95 29 -5 2 -17 5 -25 8
-8 3 -53 17 -100 32 -214 65 -616 189 -628 193 -8 4 -34 -40 -73 -122z m486
-189 c138 -43 253 -81 257 -84 3 -4 -9 -40 -28 -80 l-34 -73 -27 16 c-40 22
-67 39 -73 46 -3 3 -84 58 -180 123 -176 119 -209 144 -180 134 8 -3 128 -40
265 -82z"/>
<path d="M15525 5521 c-36 -16 -125 -96 -125 -113 0 -3 -31 -57 -70 -119 -38
-63 -70 -116 -70 -119 0 -3 12 -12 28 -21 15 -9 63 -38 107 -66 44 -27 240
-147 435 -267 195 -120 367 -227 382 -237 15 -10 31 -19 35 -19 5 0 30 34 55
76 l47 77 -67 42 c-37 23 -119 74 -184 114 l-116 72 45 87 c36 70 45 98 45
142 2 67 -21 117 -74 168 -50 48 -240 167 -297 187 -59 20 -127 19 -176 -4z
m222 -232 c117 -71 143 -95 143 -131 0 -31 -45 -118 -61 -118 -7 0 -292 171
-327 196 -2 1 12 27 32 57 51 82 72 81 213 -4z"/>
<path d="M2765 5338 c-226 -139 -327 -202 -588 -363 -114 -71 -206 -134 -205
-139 6 -23 84 -146 92 -146 5 0 44 23 87 50 43 28 82 50 88 50 5 0 11 3 13 8
2 4 57 40 123 81 66 40 183 112 261 159 77 48 202 125 277 171 75 46 137 88
137 94 0 16 -85 147 -95 147 -5 -1 -91 -51 -190 -112z"/>
<path d="M2930 4929 c-135 -99 -252 -185 -260 -192 -8 -7 -108 -81 -222 -165
-115 -85 -208 -157 -208 -160 0 -12 101 -142 110 -142 4 0 30 17 57 38 26 21
145 110 263 197 118 87 231 170 250 184 19 14 30 19 24 11 -14 -19 -171 -219
-192 -245 -10 -11 -77 -96 -150 -188 l-133 -169 58 -79 c32 -44 62 -80 66 -81
7 0 823 596 837 611 3 4 24 19 48 35 24 16 45 33 48 37 4 7 -82 134 -91 134
-3 0 -161 -112 -180 -127 -43 -36 -393 -291 -404 -296 -8 -3 -5 5 7 19 11 13
96 119 187 234 92 116 189 238 217 272 31 39 47 67 42 75 -9 15 -114 160 -123
170 -3 4 -116 -74 -251 -173z"/>
<path d="M14609 4504 l-47 -56 42 -36 c22 -21 43 -39 46 -42 3 -3 32 -28 65
-55 33 -28 62 -53 65 -56 3 -3 113 -99 245 -213 132 -114 265 -229 295 -256
30 -26 89 -76 130 -111 41 -35 92 -81 115 -102 l40 -38 48 53 c26 29 46 58 45
64 -2 6 -95 91 -208 189 -113 98 -234 204 -270 235 -176 155 -555 480 -560
480 -3 0 -26 -25 -51 -56z"/>
<path d="M3551 4369 c-53 -23 -114 -73 -241 -192 -30 -29 -121 -113 -202 -186
-195 -177 -229 -228 -224 -331 5 -96 70 -192 168 -245 44 -25 64 -30 118 -29
98 1 132 22 330 204 52 49 106 97 119 107 17 14 21 24 15 35 -13 24 -156 178
-164 178 -4 0 -34 -24 -66 -54 l-59 -54 25 -27 25 -27 -70 -65 c-134 -125
-157 -136 -211 -102 -29 17 -52 57 -49 84 2 18 35 74 49 82 8 4 58 49 112 99
124 114 141 130 238 218 43 39 86 78 95 87 64 63 119 70 163 20 48 -53 32 -97
-63 -182 l-51 -45 27 -30 c15 -16 39 -43 54 -60 45 -51 47 -51 122 23 115 112
145 210 99 318 -24 57 -112 149 -165 174 -58 27 -135 27 -194 0z"/>
<path d="M13921 3668 c-40 -32 -42 -34 -34 -73 16 -84 1 -140 -49 -186 -24
-22 -23 -25 18 -75 33 -41 58 -55 66 -36 4 11 87 76 91 71 1 -2 46 -56 98
-119 53 -63 173 -209 269 -325 95 -115 178 -216 185 -223 9 -10 25 -2 78 40
36 29 66 59 66 66 1 10 -139 186 -273 342 -11 14 -119 143 -240 288 -120 144
-221 262 -225 262 -4 0 -26 -15 -50 -32z"/>
<path d="M4665 3534 c-27 -36 -60 -77 -72 -92 -12 -15 -119 -151 -238 -302
-241 -306 -227 -287 -362 -460 -54 -69 -106 -134 -116 -145 -17 -19 -17 -20
20 -51 21 -18 49 -39 63 -47 l25 -15 255 324 c140 179 265 337 277 352 27 34
248 314 290 368 l33 41 -59 47 c-33 25 -61 46 -63 46 -1 -1 -25 -30 -53 -66z"/>
<path d="M13422 3272 l-73 -47 5 -40 c3 -22 14 -103 26 -180 12 -77 23 -156
26 -175 3 -19 9 -59 14 -89 6 -30 9 -56 7 -57 -2 -2 -54 74 -117 169 -63 95
-125 186 -138 204 l-23 32 -75 -50 c-41 -28 -74 -52 -74 -55 0 -4 311 -475
320 -484 3 -3 76 -112 163 -242 87 -131 162 -238 167 -238 5 0 40 21 77 47 37
26 69 47 71 49 1 1 -42 69 -97 151 -89 134 -100 155 -106 208 l-7 59 48 -35
c175 -126 353 -249 358 -249 10 0 146 92 146 99 0 4 -37 32 -82 64 -220 153
-368 256 -420 291 -64 43 -62 40 -83 211 -3 28 -8 61 -10 75 -2 14 -7 45 -10
70 -3 25 -10 74 -15 110 -5 36 -12 83 -15 104 -3 22 -7 41 -8 42 -2 2 -35 -18
-75 -44z"/>
<path d="M5447 2923 c-3 -10 -28 -58 -54 -108 -27 -49 -78 -144 -112 -210 -35
-66 -81 -151 -101 -190 -52 -97 -112 -210 -182 -345 -33 -63 -64 -119 -69
-125 -22 -23 -6 -43 59 -77 l67 -36 110 206 c61 113 140 264 177 335 36 71 69
131 72 134 9 9 -15 -66 -132 -415 l-108 -323 75 -39 c42 -22 78 -40 81 -39 3
0 111 144 240 320 129 175 236 319 238 319 2 0 -10 -24 -26 -52 -16 -29 -58
-107 -92 -173 -34 -66 -77 -147 -95 -180 -106 -198 -157 -296 -154 -299 31
-23 161 -78 168 -71 4 6 41 73 81 150 40 77 85 163 100 190 15 28 55 104 90
170 34 66 70 134 80 150 10 17 50 93 90 170 40 77 76 145 80 150 24 35 19 44
-50 79 -37 20 -90 47 -116 61 -43 23 -50 24 -60 10 -6 -8 -20 -27 -30 -41 -11
-14 -40 -54 -65 -88 -107 -141 -337 -453 -354 -479 -10 -15 -19 -26 -21 -24
-2 2 55 175 126 385 71 210 126 383 122 386 -32 18 -220 116 -224 116 -3 0 -8
-8 -11 -17z"/>
<path d="M12137 2660 c-32 -15 -61 -31 -64 -34 -6 -6 16 -59 93 -224 24 -51
44 -95 44 -97 0 -4 21 -51 86 -193 19 -41 34 -75 34 -77 0 -2 17 -41 39 -87
21 -45 75 -166 121 -267 45 -102 96 -216 113 -253 l32 -68 65 31 c36 17 66 32
68 34 3 2 -190 437 -332 750 -18 39 -77 170 -132 292 -54 122 -101 222 -104
222 -3 0 -31 -13 -63 -29z"/>
<path d="M6155 2058 c-180 -470 -193 -517 -165 -603 34 -104 182 -188 310
-178 85 7 162 61 205 143 15 29 333 850 338 872 2 9 -163 82 -169 75 -2 -2
-98 -252 -140 -362 -42 -112 -114 -300 -121 -315 -3 -8 -7 -17 -7 -20 -8 -30
-62 -157 -80 -182 -18 -27 -29 -34 -62 -36 -33 -2 -46 2 -71 26 -42 39 -39 59
47 282 155 401 204 528 232 598 16 41 28 75 26 77 -4 5 -161 65 -168 65 -3 0
-81 -199 -175 -442z"/>
<path d="M11184 2196 l-71 -21 59 -200 c32 -110 60 -209 62 -220 13 -58 199
-691 204 -696 7 -7 158 34 169 45 5 4 -107 411 -148 541 -5 17 -26 86 -45 155
-20 69 -43 148 -50 175 -8 28 -16 57 -18 65 -2 8 -10 35 -17 60 -7 25 -14 53
-16 63 -6 33 -23 57 -41 56 -9 -1 -49 -11 -88 -23z"/>
<path d="M7139 2156 c-12 -28 -33 -76 -46 -106 -14 -30 -31 -68 -38 -85 -36
-81 -135 -306 -195 -445 -74 -170 -98 -224 -141 -318 -16 -35 -29 -67 -29 -71
0 -4 30 -16 68 -26 37 -10 73 -20 80 -23 7 -2 20 15 33 44 56 130 63 144 75
140 7 -3 32 -10 56 -16 24 -6 67 -18 96 -27 l53 -15 -5 -41 c-3 -23 -8 -69
-11 -103 l-6 -61 83 -21 c45 -11 84 -20 85 -18 4 4 17 106 28 216 3 36 13 118
20 180 3 19 7 58 10 85 3 41 41 369 60 530 2 22 7 68 11 101 l6 62 -43 10
c-24 6 -85 21 -136 35 l-92 25 -22 -52z m97 -223 c-5 -18 -10 -61 -21 -168 -4
-33 -8 -71 -10 -85 -2 -14 -6 -50 -10 -80 -16 -154 -24 -212 -29 -217 -1 -1
-18 2 -37 8 -19 5 -44 12 -56 15 -12 2 -34 9 -47 14 -23 9 -24 11 -11 37 7 15
54 120 103 233 109 249 114 260 119 260 3 0 2 -8 -1 -17z"/>
<path d="M10625 2061 l-130 -26 1 -105 c0 -58 4 -177 8 -265 4 -88 9 -203 11
-255 2 -52 7 -149 10 -215 7 -123 13 -268 14 -318 1 -22 5 -27 19 -23 9 3 33
8 52 11 20 3 49 9 65 14 l30 8 -3 101 c-4 99 -3 101 20 106 106 23 191 37 196
31 4 -3 21 -45 38 -93 19 -54 36 -87 45 -86 37 1 159 28 159 35 0 8 -205 581
-220 614 -5 11 -46 124 -91 250 -45 127 -85 233 -88 236 -3 3 -64 -6 -136 -20z
m144 -510 c44 -123 82 -230 83 -239 2 -13 -14 -20 -77 -34 -44 -9 -81 -15 -82
-14 -3 3 -10 117 -18 311 -3 77 -8 169 -10 205 -3 63 -3 64 10 30 7 -19 49
-136 94 -259z"/>
<path d="M7724 2014 c4 -27 9 -69 11 -94 3 -25 7 -56 9 -70 3 -14 8 -49 11
-79 4 -30 8 -61 10 -70 1 -9 6 -45 10 -81 4 -36 9 -74 11 -85 2 -11 7 -44 10
-74 3 -30 7 -62 9 -70 20 -105 14 -187 -34 -456 -5 -27 -6 -53 -3 -57 7 -7 31
-12 125 -27 53 -9 53 -10 62 54 5 35 11 74 30 180 2 17 8 53 11 80 4 28 26 91
49 140 32 67 181 380 187 392 1 1 29 59 63 130 70 143 70 137 -17 148 -24 2
-53 7 -65 9 -27 6 -29 3 -83 -119 -24 -55 -56 -127 -70 -160 -15 -33 -40 -89
-55 -125 -34 -78 -45 -92 -46 -59 0 13 -2 31 -3 39 -2 8 -6 52 -10 98 -4 45
-9 93 -11 105 -2 12 -6 54 -9 92 -10 104 -18 169 -22 174 -3 3 -12 6 -22 7 -9
2 -30 5 -47 8 -16 3 -50 9 -74 12 l-43 6 6 -48z"/>
<path d="M10119 1976 c-3 -3 -90 -13 -147 -15 -9 -1 -11 -16 -7 -58 2 -32 7
-85 10 -118 3 -33 7 -82 10 -110 2 -27 7 -81 11 -120 3 -38 8 -73 10 -77 7
-11 -10 -17 -77 -23 -35 -3 -79 -8 -96 -11 -22 -2 -33 0 -34 9 0 6 -2 19 -3
27 -2 8 -7 58 -10 110 -4 52 -9 109 -11 125 -4 28 -15 153 -19 200 -1 19 -7
20 -86 16 -47 -2 -89 -5 -93 -8 -5 -3 -5 -33 -2 -67 8 -71 12 -112 20 -216 3
-41 7 -91 10 -110 2 -19 6 -69 10 -110 3 -41 8 -93 10 -115 2 -22 7 -76 10
-120 4 -44 8 -91 10 -105 2 -14 7 -65 11 -115 3 -49 8 -97 10 -105 1 -8 3 -34
3 -57 l1 -42 78 6 c42 3 85 6 94 7 15 0 17 8 13 56 -10 114 -16 176 -20 210
-2 19 -7 71 -10 115 -3 44 -8 87 -11 97 -6 19 13 24 129 34 76 6 77 6 78 -17
1 -13 3 -33 4 -44 2 -20 13 -140 20 -220 10 -131 18 -201 21 -204 5 -5 77 -2
110 4 10 2 32 4 47 4 27 1 28 3 23 44 -3 23 -8 74 -11 112 -3 39 -8 90 -11
115 -8 79 -13 133 -19 210 -3 42 -7 94 -9 115 -3 22 -7 72 -10 110 -4 39 -9
93 -12 120 -2 28 -6 73 -8 100 -15 185 -19 221 -30 233 -7 7 -14 11 -17 8z"/>
<path d="M8835 1920 c-1 -3 -3 -41 -4 -85 l-2 -80 92 -2 c51 -2 94 -5 96 -7 3
-2 4 -84 3 -183 -1 -98 -3 -320 -5 -494 l-3 -317 92 -1 92 -2 3 188 c1 104 4
323 6 488 2 165 4 306 5 313 0 9 26 12 94 12 l94 0 4 63 c6 115 22 105 -175
107 -95 1 -221 3 -280 4 -60 0 -110 -1 -112 -4z"/>
</g>
</svg>
