<?xml version="1.0" standalone="no"?>
<!DOCTYPE svg PUBLIC "-//W3C//DTD SVG 20010904//EN"
 "http://www.w3.org/TR/2001/REC-SVG-20010904/DTD/svg10.dtd">
<svg version="1.0" xmlns="http://www.w3.org/2000/svg"
 width="700.000000pt" height="700.000000pt" viewBox="0 0 700.000000 700.000000"
 preserveAspectRatio="xMidYMid meet">
<metadata>
Created by potrace 1.11, written by Peter Selinger 2001-2013
</metadata>
<g transform="translate(0.000000,700.000000) scale(0.100000,-0.100000)"
fill="#000000" stroke="none">
<path d="M3278 6995 c-2 -1 -42 -5 -89 -9 -47 -4 -95 -8 -105 -10 -10 -2 -45
-7 -78 -11 -68 -8 -85 -11 -186 -31 -221 -45 -417 -103 -618 -183 -162 -65
-471 -219 -513 -257 -8 -8 -19 -14 -23 -14 -12 0 -220 -144 -316 -219 -421
-327 -767 -755 -1001 -1238 -32 -68 -59 -125 -59 -128 0 -3 -9 -24 -20 -48
-57 -123 -157 -435 -186 -582 -2 -11 -10 -54 -19 -95 -29 -147 -36 -200 -52
-370 -15 -165 -8 -592 12 -711 2 -13 6 -46 9 -74 9 -78 22 -152 51 -285 21
-96 91 -339 114 -395 5 -11 25 -65 46 -120 44 -116 165 -368 226 -470 116
-194 313 -466 414 -571 164 -173 266 -272 360 -349 33 -28 62 -52 65 -55 31
-33 389 -280 407 -280 3 0 14 -6 22 -14 26 -22 257 -139 386 -194 279 -120
602 -210 880 -247 22 -2 56 -7 75 -10 186 -26 698 -27 838 0 16 3 104 15 147
20 125 16 395 85 581 149 203 69 476 195 616 283 21 12 40 23 43 23 3 0 11 4
18 10 7 5 64 44 127 86 248 165 496 382 672 588 34 39 64 73 68 76 12 10 137
176 192 255 107 154 230 373 305 540 63 141 71 162 106 260 58 165 100 310
123 420 17 81 54 301 59 350 4 33 9 71 11 85 9 46 11 524 4 605 -12 128 -21
202 -25 227 -3 13 -8 43 -11 68 -9 69 -70 336 -97 425 -356 1168 -1258 2053
-2426 2380 -93 26 -302 71 -371 80 -19 3 -46 7 -60 10 -13 2 -52 7 -86 11 -33
3 -74 8 -90 10 -32 5 -540 14 -546 9z"/>
</g>
</svg>
