<?xml version="1.0" standalone="no"?>
<!DOCTYPE svg PUBLIC "-//W3C//DTD SVG 20010904//EN"
 "http://www.w3.org/TR/2001/REC-SVG-20010904/DTD/svg10.dtd">
<svg version="1.0" xmlns="http://www.w3.org/2000/svg"
 width="700.000000pt" height="700.000000pt" viewBox="0 0 700.000000 700.000000"
 preserveAspectRatio="xMidYMid meet">
<metadata>
Created by potrace 1.11, written by Peter Selinger 2001-2013
</metadata>
<g transform="translate(0.000000,700.000000) scale(0.100000,-0.100000)"
fill="#000000" stroke="none">
<path d="M4943 6073 c-18 -3 -23 -13 -28 -51 -13 -97 -55 -244 -93 -325 -60
-129 -114 -201 -246 -331 -142 -139 -277 -242 -459 -351 -73 -44 -159 -96
-192 -117 -77 -50 -129 -64 -310 -83 -171 -17 -207 -25 -290 -68 -125 -63
-170 -116 -281 -333 -95 -183 -111 -207 -215 -315 -92 -95 -126 -115 -341
-205 -70 -29 -158 -72 -195 -97 -135 -88 -170 -100 -396 -126 -91 -11 -174
-24 -185 -30 -25 -13 -69 -72 -88 -116 -46 -112 24 -243 170 -315 95 -47 205
-62 459 -62 119 0 217 0 217 -1 0 -1 -47 -88 -105 -192 -58 -105 -191 -362
-295 -572 l-191 -382 -34 6 c-79 13 -124 -36 -195 -217 -23 -58 -55 -128 -70
-156 -16 -27 -65 -140 -110 -249 -44 -109 -95 -226 -114 -260 -33 -61 -34 -62
-13 -74 18 -12 23 -11 35 5 28 38 73 136 142 311 40 98 87 205 105 239 19 33
52 108 75 166 49 126 89 188 124 188 14 0 28 -4 31 -10 3 -5 15 -14 25 -20 17
-9 38 30 229 413 115 232 259 510 319 617 145 259 158 239 -156 238 -342 -1
-458 26 -550 126 -73 79 -77 165 -11 241 37 42 36 41 184 55 202 19 304 49
394 114 55 40 134 80 256 131 136 56 155 65 225 111 116 76 210 198 322 416
94 184 156 261 247 308 80 40 118 49 281 65 175 18 251 36 310 75 25 15 113
69 195 120 83 50 199 126 257 170 125 93 309 267 379 359 74 97 145 249 178
379 l28 111 92 -130 c101 -142 159 -245 186 -328 27 -83 17 -217 -27 -355 -28
-87 -33 -116 -27 -149 10 -55 50 -91 93 -83 37 7 75 47 83 87 4 23 10 28 24
24 11 -4 19 -2 19 4 0 6 7 11 14 11 11 0 16 14 18 48 3 47 3 47 40 48 51 3 66
-18 82 -117 8 -46 24 -111 36 -144 46 -127 28 -191 -109 -385 -45 -63 -96
-137 -115 -165 -18 -27 -90 -101 -159 -164 -210 -190 -376 -391 -471 -572 -25
-48 -69 -156 -98 -240 -53 -154 -53 -154 -52 -279 0 -132 4 -153 79 -412 19
-65 42 -159 50 -210 9 -51 37 -163 62 -248 41 -138 47 -166 47 -256 1 -99 0
-103 -41 -185 -37 -75 -84 -220 -128 -396 -24 -97 -45 -251 -45 -334 0 -80 6
-91 57 -118 19 -10 24 -8 34 11 8 14 8 23 2 25 -6 2 -18 10 -28 17 -17 12 -18
21 -7 137 14 146 31 229 79 393 19 67 37 133 40 148 2 15 19 53 38 84 73 121
73 250 1 499 -26 88 -51 192 -57 230 -5 39 -30 140 -54 225 -68 238 -77 286
-78 395 0 94 3 109 51 252 71 212 133 328 260 488 73 92 266 288 369 377 46
38 81 73 79 77 -3 4 16 34 40 67 94 122 195 283 214 339 27 77 25 108 -9 217
-16 51 -32 118 -36 148 -13 108 -53 150 -145 150 -51 0 -80 -27 -80 -74 0 -34
0 -35 -32 -25 -18 5 -43 9 -56 9 l-23 0 22 -37 c17 -32 19 -43 10 -66 -14 -36
-40 -46 -57 -22 -21 28 -17 62 16 159 91 270 59 408 -166 721 -39 55 -86 124
-104 153 -17 28 -32 51 -33 51 -1 -1 -12 -4 -24 -6z"/>
</g>
</svg>
